<svg width="44" height="44" viewBox="0 0 44 44" fill="none" xmlns="http://www.w3.org/2000/svg">
<rect y="-0.000244141" width="44" height="44" rx="12" fill="#EBF3D4"/>
<path d="M10.75 10.8545V16.432V16.5445V16.432C10.75 18.0245 11.4063 19.4345 12.4238 20.347C12.9213 20.7932 13.25 21.3957 13.25 22.0645V31.3745C13.25 32.4095 14.09 33.2495 15.125 33.2495C16.16 33.2495 17 32.4095 17 31.3745V22.0645C17 21.3957 17.3288 20.7932 17.8263 20.347C18.8438 19.4345 19.5 18.0245 19.5 16.432V10.8545V16.432" stroke="#8BAA36" stroke-width="3" stroke-linecap="round" stroke-linejoin="round"/>
<path d="M15.125 16.9998V10.7498" stroke="#8BAA36" stroke-width="3" stroke-linecap="round" stroke-linejoin="round"/>
<path d="M32 12.0645C32 11.3745 31.44 10.8145 30.75 10.8145H29.5C27.4288 10.8145 25.75 12.4932 25.75 14.5645V22.0645C25.75 23.6945 26.7963 25.0682 28.25 25.5845V31.3745C28.25 32.4095 29.09 33.2495 30.125 33.2495C31.16 33.2495 32 32.4095 32 31.3745V25.8145V12.0645Z" stroke="#8BAA36" stroke-width="3" stroke-linecap="round" stroke-linejoin="round"/>
</svg>
