<svg xmlns="http://www.w3.org/2000/svg"  fill="none"><rect width="54" height="54" x=".5" fill="#8BAA36" rx="12"/><path stroke="#FAFAFA" stroke-linecap="round" stroke-linejoin="round" stroke-width="2" d="M13.5 13.132V20.213v-.14c0 1.982.865 3.737 2.206 4.873.655.555 1.088 1.305 1.088 2.137v11.586c0 1.288 1.107 2.334 2.47 2.334 1.365 0 2.471-1.046 2.471-2.334V27.083c0-.832.434-1.582 1.09-2.137 1.34-1.136 2.205-2.89 2.205-4.873v-6.94 6.94M19.26 20.778V13M41.5 14.636c0-.858-.738-1.555-1.647-1.555h-1.647c-2.73 0-4.941 2.089-4.941 4.666v9.334c0 2.029 1.378 3.738 3.294 4.38v7.206c0 1.288 1.107 2.334 2.47 2.334 1.364 0 2.471-1.046 2.471-2.334v-24.03Z"/></svg>