<svg aria-hidden="true" style="position: absolute; width: 0; height: 0; overflow: hidden;" version="1.1" xmlns="http://www.w3.org/2000/svg" xmlns:xlink="http://www.w3.org/1999/xlink">
<defs>
<symbol id="icon-logo1" viewBox="0 0 32 32">
<path fill="#8baa36" style="fill: var(--color1, #8baa36)" d="M9.6 0h12.8c5.302 0 9.6 4.298 9.6 9.6v12.8c0 5.302-4.298 9.6-9.6 9.6h-12.8c-5.302 0-9.6-4.298-9.6-9.6v-12.8c0-5.302 4.298-9.6 9.6-9.6z"></path>
<path fill="none" stroke="#fafafa" style="stroke: var(--color2, #fafafa)" stroke-linejoin="round" stroke-linecap="round" stroke-miterlimit="4" stroke-width="1.6" d="M7.039 7.117v4.072c0 1.163 0.507 2.192 1.294 2.858 0.385 0.326 0.639 0.766 0.639 1.254v6.797c0 0.756 0.649 1.369 1.449 1.369s1.449-0.613 1.449-1.369v-6.797c0-0.488 0.254-0.928 0.639-1.254 0.787-0.666 1.294-1.696 1.294-2.858v0"></path>
<path fill="none" stroke="#fafafa" style="stroke: var(--color2, #fafafa)" stroke-linejoin="round" stroke-linecap="round" stroke-miterlimit="4" stroke-width="1.6" d="M10.42 11.603v-4.563"></path>
<path fill="none" stroke="#fafafa" style="stroke: var(--color2, #fafafa)" stroke-linejoin="round" stroke-linecap="round" stroke-miterlimit="4" stroke-width="1.6" d="M23.466 8c0-0.504-0.433-0.913-0.966-0.913h-0.966c-1.601 0-2.899 1.226-2.899 2.738v5.476c0 1.19 0.809 2.193 1.933 2.57v4.227c0 0.756 0.649 1.369 1.449 1.369s1.449-0.613 1.449-1.369v-14.098z"></path>
</symbol>
</defs>
</svg>
