<svg aria-hidden="true" style="position: absolute; width: 0; height: 0; overflow: hidden;" version="1.1" xmlns="http://www.w3.org/2000/svg" xmlns:xlink="http://www.w3.org/1999/xlink">
<defs>
<symbol id="icon-login-register" viewBox="0 0 36 32">
<path fill="#e0e0e0" style="fill: var(--color1, #e0e0e0)" d="M5.931 12.083c-0.001-0.005-0.001-0.010 0-0.015v-0.042c0-0.038 0-0.093 0-0.162 0-0.142 0-0.347-0.006-0.604l0.011 0.010-3.539 0.006 0.017-0.015v0.824l-0.017-0.016 3.275 0.011-3.298 0.017v-0.832l0.018-0.016 3.55 0.006v0.010c0 0.26-0.005 0.467-0.006 0.61 0 0.069 0 0.122 0 0.16v0.040c-0.002 0.003-0.003 0.006-0.005 0.009z"></path>
<path fill="#e0e0e0" style="fill: var(--color1, #e0e0e0)" d="M6.41 11.259c0 0 0-0.006 0-0.016s0-0.026 0-0.043c0-0.041 0-0.096 0-0.165 0-0.145 0-0.349-0.007-0.6l0.012 0.011-2.127 0.005c-0.016 0.014 0.022-0.019 0.018-0.015v0.422c0 0.138 0 0.271 0 0.399l-0.017-0.015 1.521 0.007 0.443 0.004h0.124l-0.122 0.010-0.436 0.004-1.55 0.007v-0.015c0-0.128 0-0.261 0-0.399 0-0.068 0-0.139 0-0.209v-0.213l0.018-0.016 2.14 0.005v0.011c0 0.256-0.005 0.46-0.007 0.607 0 0.069 0 0.122 0 0.163-0.002 0.018-0.006 0.035-0.012 0.052z"></path>
<path fill="#e0e0e0" style="fill: var(--color1, #e0e0e0)" d="M16.649 4.645c-0.001-0.005-0.001-0.010 0-0.015v-0.042c0-0.039 0-0.093 0-0.163 0-0.142-0.004-0.346-0.007-0.604l0.012 0.010-3.544 0.009c0.008-0.007-0.018 0.016 0.018-0.016v0.821l-0.018-0.015 3.54 0.012c-0.006 0.001-0.011 0.001-0.017 0h-0.248l-0.743 0.012-2.546 0.007v-0.628c0-0.035 0-0.070 0-0.105v-0.104l0.019-0.016 3.546 0.006v0.010c0 0.26-0.005 0.467-0.007 0.61 0 0.068 0 0.122 0 0.16v0.041c-0.001 0.004-0.003 0.008-0.004 0.011z"></path>
<path fill="#e0e0e0" style="fill: var(--color1, #e0e0e0)" d="M17.129 3.821c0 0 0-0.006 0-0.015s0-0.026 0-0.044c0-0.040 0-0.095 0-0.165 0-0.144-0.004-0.348-0.007-0.599l0.013 0.012-2.127 0.004 0.018-0.016v0.213c0 0.071 0 0.141 0 0.21v0.399l-0.017-0.015 2.127 0.012c-0.013 0.001-0.026 0.001-0.038 0h-0.116l-0.436 0.004-1.558 0.020v-0.015c0-0.128 0-0.262 0-0.399v-0.426l0.018-0.016 2.14 0.004v0.012c0 0.256-0.005 0.46-0.007 0.606 0 0.068 0 0.123 0 0.163-0.002 0.018-0.005 0.036-0.009 0.054z"></path>
<path fill="#e0e0e0" style="fill: var(--color1, #e0e0e0)" d="M13.071 8.529h-8.842v-5.389h8.842v5.389zM4.313 8.456h8.676v-5.242h-8.676v5.242z"></path>
<path fill="#e0e0e0" style="fill: var(--color1, #e0e0e0)" d="M12.081 3.84c-0.011 0.001-0.023 0.001-0.034 0h-0.474l-1.414 0.005-4.939 0.009 0.018-0.013c0 1.221 0 2.573 0 3.994l-0.022-0.019 6.861 0.004-0.018 0.015c0.004-1.216 0.007-2.212 0.009-2.906 0-0.347 0-0.618 0.004-0.804 0-0.092 0-0.163 0-0.211s0-0.074 0-0.074c0 0 0 0.024 0 0.070s0 0.118 0 0.209c0 0.185 0 0.454 0.004 0.8 0 0.696 0.005 1.696 0.009 2.916v0.015l-6.901 0.004v-0.019c0-1.421 0-2.774 0-3.994v-0.017h0.020l6.875 0.017z"></path>
<path fill="#e0e0e0" style="fill: var(--color1, #e0e0e0)" d="M4.271 3.162c0.054 0.023 0.104 0.052 0.151 0.086 0.089 0.057 0.212 0.138 0.343 0.23s0.247 0.18 0.33 0.246c0.047 0.034 0.089 0.073 0.125 0.116-0.008 0.008-0.218-0.145-0.482-0.329s-0.474-0.34-0.467-0.349z"></path>
<path fill="#e0e0e0" style="fill: var(--color1, #e0e0e0)" d="M26.225 30.749h4.311v-2.449h0.299v-0.685h-4.789v0.621l0.18 2.513z"></path>
<path fill="#e0e0e0" style="fill: var(--color1, #e0e0e0)" d="M16.23 15.929c-0-0.005-0-0.010 0-0.015v-0.042c0-0.038 0-0.093 0-0.162 0-0.142-0.004-0.347-0.006-0.604l0.011 0.010-3.539 0.006 0.017-0.015v0.822l-0.017-0.015 3.275 0.011-0.74 0.005-2.553 0.007v-0.831l0.018-0.016 3.55 0.006v0.010c0 0.26-0.004 0.467-0.006 0.61 0 0.069 0 0.122 0 0.16 0 0.017 0 0.030 0 0.040-0.003 0.005-0.006 0.010-0.010 0.015z"></path>
<path fill="#e0e0e0" style="fill: var(--color1, #e0e0e0)" d="M33.381 11.016c0 0 0-0.006 0-0.015v-0.042c0-0.038 0-0.093 0-0.162 0-0.142-0.004-0.347-0.006-0.604l0.011 0.010-3.539 0.006 0.018-0.015v0.211c0 0.070 0 0.139 0 0.208v0.405l-0.017-0.016 3.275 0.011-0.741 0.005-2.552 0.007v-0.015c0-0.133 0-0.268 0-0.405v-0.419l0.018-0.016 3.545 0.006v0.010c0 0.26-0.004 0.467-0.006 0.61 0 0.068 0 0.122 0 0.16 0 0.017 0 0.030 0 0.040-0 0.008-0.003 0.015-0.007 0.022z"></path>
<path fill="#455a64" style="fill: var(--color2, #455a64)" d="M31.051 1.883h-10.54c-1.018 0-1.843 0.726-1.843 1.622v21.541c0 0.896 0.825 1.622 1.843 1.622h10.54c1.018 0 1.844-0.726 1.844-1.622v-21.541c0-0.896-0.825-1.622-1.844-1.622z"></path>
<path fill="#263238" style="fill: var(--color3, #263238)" d="M32.671 25.049v-21.545c0-0.786-0.724-1.423-1.617-1.423h-10.545c-0.893 0-1.617 0.637-1.617 1.423v21.545c0 0.786 0.724 1.423 1.617 1.423h10.545c0.893 0 1.617-0.637 1.617-1.423z"></path>
<path fill="#455a64" style="fill: var(--color2, #455a64)" d="M24.76 2.862c-0.022 0.001-0.043-0.001-0.064-0.008s-0.039-0.016-0.055-0.030c-0.016-0.013-0.029-0.029-0.037-0.046s-0.013-0.036-0.013-0.056 0.004-0.038 0.013-0.056c0.009-0.018 0.021-0.033 0.037-0.046s0.035-0.023 0.055-0.030c0.020-0.006 0.042-0.009 0.064-0.008h2.037c0.040 0.002 0.078 0.018 0.105 0.044s0.043 0.060 0.043 0.095c0 0.035-0.015 0.069-0.043 0.095s-0.065 0.042-0.105 0.044h-2.037z"></path>
<path fill="#455a64" style="fill: var(--color2, #455a64)" d="M23.668 2.862c-0.031 0-0.062-0.008-0.088-0.023s-0.046-0.037-0.058-0.063c-0.012-0.026-0.015-0.054-0.009-0.081s0.021-0.052 0.043-0.071c0.022-0.019 0.050-0.033 0.081-0.038s0.063-0.003 0.092 0.008c0.029 0.011 0.054 0.028 0.071 0.051s0.027 0.050 0.027 0.078c0 0.037-0.017 0.072-0.046 0.099s-0.070 0.041-0.112 0.041z"></path>
<path fill="#455a64" style="fill: var(--color2, #455a64)" d="M24.251 2.862c-0.031 0-0.062-0.008-0.088-0.023s-0.047-0.037-0.059-0.062c-0.012-0.025-0.015-0.054-0.009-0.081s0.021-0.052 0.043-0.072c0.022-0.020 0.050-0.033 0.081-0.038s0.063-0.003 0.092 0.008c0.029 0.011 0.054 0.028 0.071 0.051s0.027 0.050 0.027 0.078c-0 0.037-0.017 0.072-0.046 0.098s-0.070 0.041-0.111 0.041z"></path>
<path fill="#455a64" style="fill: var(--color2, #455a64)" d="M27.895 2.862c-0.031 0-0.062-0.008-0.088-0.023s-0.047-0.037-0.059-0.062c-0.012-0.025-0.015-0.054-0.009-0.081s0.021-0.052 0.043-0.072c0.022-0.020 0.050-0.033 0.081-0.038s0.063-0.003 0.092 0.008c0.029 0.011 0.054 0.028 0.071 0.051s0.027 0.050 0.027 0.078c-0 0.037-0.017 0.072-0.046 0.098s-0.070 0.041-0.111 0.041z"></path>
<path fill="#455a64" style="fill: var(--color2, #455a64)" d="M27.312 2.862c-0.031 0-0.062-0.008-0.088-0.023s-0.046-0.037-0.058-0.063c-0.012-0.026-0.015-0.054-0.009-0.081s0.021-0.052 0.043-0.071c0.022-0.019 0.050-0.033 0.081-0.038s0.063-0.003 0.092 0.008c0.029 0.011 0.054 0.028 0.071 0.051s0.027 0.050 0.027 0.078c0 0.037-0.017 0.072-0.046 0.099s-0.070 0.041-0.112 0.041z"></path>
<path fill="#fafafa" style="fill: var(--color4, #fafafa)" d="M31.128 2.221h-1.998c-0.153-0-0.303 0.044-0.426 0.124s-0.213 0.194-0.257 0.324l-0.034 0.102c-0.046 0.139-0.141 0.261-0.272 0.348s-0.291 0.135-0.455 0.135h-3.806c-0.165-0-0.325-0.047-0.457-0.134s-0.228-0.21-0.274-0.349l-0.034-0.102c-0.044-0.13-0.134-0.243-0.257-0.324s-0.273-0.124-0.426-0.124h-1.812c-0.373 0-0.731 0.13-0.995 0.363s-0.412 0.547-0.412 0.876v21.491c0 0.309 0.14 0.605 0.388 0.824s0.585 0.341 0.936 0.341h10.615c0.157 0 0.313-0.027 0.459-0.080s0.278-0.131 0.389-0.228c0.111-0.098 0.2-0.214 0.26-0.342s0.091-0.265 0.091-0.404v-21.764c-0-0.285-0.129-0.559-0.358-0.761s-0.54-0.315-0.865-0.315z"></path>
<path fill="#455a64" style="fill: var(--color2, #455a64)" d="M32.91 10.119h-0.016v-2.849h0.016c0.021 0 0.040 0.007 0.055 0.020s0.023 0.030 0.023 0.048v2.712c0 0.018-0.008 0.036-0.023 0.048s-0.034 0.020-0.055 0.020z"></path>
<path fill="#455a64" style="fill: var(--color2, #455a64)" d="M18.649 9.024h0.019v1.803h-0.019c-0.021 0-0.040-0.007-0.055-0.020s-0.023-0.030-0.023-0.048v-1.664c-0-0.009 0.001-0.018 0.005-0.027s0.009-0.016 0.017-0.023c0.007-0.007 0.016-0.012 0.026-0.016s0.020-0.005 0.030-0.005z"></path>
<path fill="#455a64" style="fill: var(--color2, #455a64)" d="M18.649 6.669h0.019v1.804h-0.019c-0.021 0-0.040-0.007-0.055-0.020s-0.023-0.030-0.023-0.048v-1.664c-0-0.009 0.001-0.018 0.005-0.027s0.009-0.016 0.017-0.023c0.007-0.007 0.016-0.012 0.026-0.016s0.020-0.005 0.030-0.005z"></path>
<path fill="#455a64" style="fill: var(--color2, #455a64)" d="M18.654 4.901h0.015v0.838h-0.015c-0.018 0-0.036-0.006-0.049-0.018s-0.020-0.027-0.020-0.043v-0.717c0-0.016 0.007-0.032 0.020-0.043s0.031-0.018 0.049-0.018z"></path>
<path fill="#263238" style="fill: var(--color3, #263238)" d="M31.179 3.181h-0.49c-0.009 0-0.018-0.003-0.025-0.009s-0.010-0.014-0.011-0.022v-0.214c0-0.008 0.004-0.016 0.010-0.022s0.015-0.009 0.025-0.009h0.491c0.002-0.001 0.004-0.001 0.006 0 0.001 0.002 0.001 0.004 0 0.006v0.070h0.052c0.002 0 0.005 0.001 0.006 0.002s0.003 0.003 0.003 0.005v0.104c0 0.001-0 0.002-0.001 0.003s-0.001 0.002-0.002 0.003-0.002 0.001-0.003 0.002-0.002 0-0.004 0h-0.052v0.071c0 0.001 0.001 0.002 0.001 0.003s-0 0.002-0.001 0.003-0.002 0.002-0.003 0.002-0.002 0.001-0.003 0.001zM31.17 2.92h-0.482c-0.002 0-0.005 0-0.007 0.001s-0.004 0.002-0.005 0.003-0.003 0.003-0.004 0.005-0.001 0.004-0.001 0.006v0.214c0 0.002 0 0.004 0.001 0.006s0.002 0.003 0.004 0.005 0.004 0.002 0.006 0.003 0.004 0.001 0.007 0.001h0.482v-0.070c0-0.002 0.001-0.004 0.003-0.005s0.004-0.002 0.006-0.002h0.052v-0.088h-0.052c-0.001 0-0.002-0-0.004-0.001s-0.002-0.001-0.003-0.002c-0.001-0.001-0.001-0.002-0.002-0.003s-0-0.002-0-0.003v-0.070z"></path>
<path fill="#263238" style="fill: var(--color3, #263238)" d="M30.204 3.164c0-0.006-0.002-0.013-0.006-0.018s-0.010-0.009-0.016-0.012-0.014-0.003-0.021-0.002c-0.007 0.001-0.014 0.004-0.019 0.009s-0.008 0.010-0.010 0.017c-0.001 0.006-0 0.013 0.002 0.019s0.008 0.011 0.014 0.014c0.006 0.003 0.013 0.005 0.020 0.005 0.005 0 0.009-0.001 0.014-0.002s0.008-0.004 0.012-0.007c0.003-0.003 0.006-0.006 0.008-0.010s0.003-0.008 0.003-0.012z"></path>
<path fill="#263238" style="fill: var(--color3, #263238)" d="M30.047 3.089l0.046 0.040c0.021-0.018 0.048-0.027 0.077-0.028s0.056 0.010 0.076 0.028l0.046-0.040c-0.016-0.014-0.035-0.025-0.056-0.033s-0.044-0.012-0.066-0.012c-0.023 0-0.045 0.004-0.066 0.012s-0.040 0.019-0.056 0.033z"></path>
<path fill="#263238" style="fill: var(--color3, #263238)" d="M30.168 2.954c-0.036-0-0.072 0.006-0.105 0.018s-0.064 0.030-0.089 0.053l0.046 0.040c0.040-0.034 0.093-0.054 0.149-0.054s0.109 0.019 0.149 0.054l0.046-0.040c-0.026-0.023-0.056-0.041-0.089-0.053s-0.069-0.018-0.106-0.018z"></path>
<path fill="#263238" style="fill: var(--color3, #263238)" d="M29.901 2.959l0.046 0.040c0.029-0.026 0.064-0.046 0.102-0.060s0.079-0.021 0.121-0.021 0.082 0.007 0.121 0.021c0.038 0.014 0.073 0.034 0.102 0.060l0.046-0.040c-0.071-0.063-0.168-0.098-0.269-0.098s-0.197 0.035-0.269 0.098z"></path>
<path fill="#fafafa" style="fill: var(--color4, #fafafa)" d="M24.193 23.672c-0.049-0.023-0.091-0.058-0.119-0.1s-0.044-0.090-0.044-0.139c0-0.049 0.015-0.097 0.044-0.139s0.070-0.076 0.119-0.1c0.052-0.024 0.11-0.036 0.169-0.035 0.059-0.001 0.117 0.011 0.169 0.035 0.049 0.023 0.090 0.057 0.119 0.099 0.022 0.031 0.036 0.067 0.042 0.103s0.003 0.074-0.008 0.109c-0.011 0.036-0.030 0.069-0.057 0.098s-0.059 0.052-0.096 0.070c-0.052 0.025-0.11 0.037-0.169 0.036-0.059 0.001-0.117-0.011-0.169-0.036zM24.459 23.581c0.028-0.015 0.052-0.035 0.068-0.061 0.017-0.027 0.026-0.057 0.025-0.088 0.001-0.031-0.008-0.061-0.025-0.088-0.016-0.025-0.039-0.046-0.068-0.060-0.030-0.014-0.063-0.022-0.097-0.022s-0.067 0.007-0.097 0.022c-0.028 0.015-0.052 0.035-0.068 0.060-0.017 0.027-0.025 0.058-0.025 0.088s0.008 0.061 0.025 0.088c0.016 0.025 0.039 0.046 0.068 0.061 0.030 0.014 0.063 0.022 0.097 0.022s0.067-0.008 0.097-0.022z"></path>
<path fill="#fafafa" style="fill: var(--color4, #fafafa)" d="M25.183 23.699l-0.116-0.148h-0.129v0.148h-0.14v-0.531h0.261c0.048-0.001 0.095 0.007 0.14 0.023 0.038 0.014 0.070 0.038 0.091 0.068s0.033 0.066 0.032 0.102c0.002 0.036-0.010 0.071-0.032 0.101s-0.055 0.053-0.093 0.066l0.135 0.171-0.15-0.001zM25.148 23.291c-0.028-0.018-0.061-0.026-0.095-0.024h-0.114v0.186h0.114c0.034 0.002 0.068-0.007 0.095-0.024 0.011-0.008 0.020-0.019 0.025-0.031s0.008-0.025 0.007-0.038c0.001-0.013-0.002-0.026-0.007-0.038s-0.014-0.022-0.025-0.031z"></path>
<path fill="#fafafa" style="fill: var(--color4, #fafafa)" d="M25.433 23.168h0.274c0.060-0.001 0.12 0.010 0.174 0.033 0.048 0.021 0.089 0.053 0.117 0.093 0.028 0.042 0.042 0.091 0.042 0.14s-0.015 0.097-0.042 0.14c-0.028 0.040-0.069 0.073-0.117 0.093-0.054 0.023-0.114 0.034-0.174 0.033h-0.274v-0.531zM25.7 23.598c0.053 0.003 0.105-0.013 0.145-0.044 0.035-0.033 0.054-0.076 0.054-0.12s-0.019-0.088-0.054-0.12c-0.040-0.031-0.092-0.047-0.145-0.045h-0.127v0.33h0.127z"></path>
<path fill="#263238" style="fill: var(--color3, #263238)" d="M19.782 6.28h0.888l11.026-0.012v0.016c0 1.108 0 2.293 0 3.514v0.017l-11.93-0.006v-0.016c0-1.103 0.005-1.984 0.007-2.587 0-0.301 0-0.532 0-0.691 0-0.077 0-0.137 0-0.177s0-0.060 0-0.060c0 0 0 0.021 0 0.064s0 0.101 0 0.18c0 0.158 0 0.391 0 0.692 0 0.603 0.004 1.48 0.007 2.58l-0.013-0.011 11.899-0.005-0.019 0.017v-3.515l0.019 0.016-11.884-0.016z"></path>
<path fill="#afe814" style="fill: var(--color5, #afe814)" d="M21.971 8.1c-0.014 0-0.027-0.005-0.038-0.013s-0.016-0.020-0.017-0.032l-0.063-1.339c-0-0.006 0.001-0.013 0.003-0.019s0.006-0.012 0.012-0.016 0.011-0.008 0.018-0.011c0.007-0.003 0.014-0.004 0.021-0.004h0.073c0.015 0 0.028 0.005 0.039 0.014s0.016 0.021 0.016 0.034l-0.013 1.339c-0 0.012-0.006 0.024-0.015 0.033s-0.023 0.014-0.037 0.015z"></path>
<path fill="#afe814" style="fill: var(--color5, #afe814)" d="M22.095 8.105c-0.013-0.004-0.024-0.013-0.030-0.024s-0.007-0.024-0.003-0.036l0.463-1.276c0.002-0.006 0.006-0.012 0.011-0.018s0.011-0.009 0.018-0.012c0.007-0.003 0.014-0.005 0.022-0.005s0.015 0.001 0.022 0.004l0.073 0.023c0.007 0.002 0.013 0.006 0.019 0.010s0.010 0.010 0.013 0.016c0.003 0.006 0.005 0.012 0.005 0.019s-0.001 0.013-0.004 0.019l-0.535 1.253c-0.003 0.006-0.007 0.012-0.012 0.016s-0.011 0.008-0.018 0.011c-0.007 0.002-0.014 0.004-0.022 0.003s-0.015-0.002-0.022-0.005z"></path>
<path fill="#fafafa" style="fill: var(--color4, #fafafa)" d="M22.613 7.765c-0.028-0.038-0.065-0.070-0.108-0.094s-0.092-0.040-0.142-0.046c-0.1-0.010-0.201 0.005-0.291 0.045-0.073 0.029-0.145 0.070-0.218 0.056-0.053-0.015-0.103-0.040-0.145-0.072-0.056-0.034-0.119-0.057-0.186-0.069s-0.135-0.012-0.202-0c-0.137 0.028-0.257 0.101-0.336 0.204-0.033 0.038-0.055 0.082-0.067 0.128s-0.011 0.095 0.001 0.141l1.718-0.006c0.022-0.047 0.031-0.097 0.027-0.147s-0.022-0.099-0.051-0.142z"></path>
<path fill="#263238" style="fill: var(--color3, #263238)" d="M22.567 8.020c0.003-0.025 0.003-0.050 0-0.074-0.006-0.068-0.040-0.132-0.097-0.179-0.039-0.031-0.089-0.050-0.142-0.054-0.061-0.005-0.122 0.003-0.178 0.022-0.060 0.018-0.117 0.052-0.184 0.076-0.035 0.013-0.072 0.018-0.109 0.017-0.038-0.002-0.075-0.011-0.109-0.026-0.069-0.029-0.127-0.069-0.19-0.097-0.059-0.028-0.126-0.041-0.193-0.038-0.057 0.003-0.113 0.017-0.163 0.041s-0.094 0.058-0.128 0.098c-0.046 0.055-0.077 0.118-0.091 0.185-0.005 0.024-0.007 0.042-0.008 0.055 0.001 0.006 0.001 0.013 0 0.019-0.002-0.025-0-0.050 0.004-0.075 0.011-0.069 0.042-0.135 0.088-0.192 0.034-0.042 0.079-0.077 0.13-0.102s0.108-0.040 0.167-0.044c0.070-0.004 0.139 0.010 0.201 0.038 0.064 0.029 0.122 0.069 0.189 0.097 0.031 0.015 0.066 0.023 0.102 0.025s0.071-0.004 0.104-0.016c0.065-0.023 0.122-0.057 0.186-0.076 0.059-0.019 0.122-0.027 0.184-0.022 0.054 0.006 0.105 0.027 0.145 0.059 0.058 0.049 0.092 0.115 0.095 0.185 0.004 0.026 0.003 0.052-0.004 0.077z"></path>
<path fill="#263238" style="fill: var(--color3, #263238)" d="M22.485 8.038c0.002-0.021 0.002-0.043 0-0.064-0.002-0.029-0.012-0.058-0.029-0.084s-0.039-0.048-0.066-0.065c-0.038-0.023-0.084-0.033-0.13-0.028-0.052 0.009-0.102 0.028-0.145 0.054-0.049 0.031-0.104 0.055-0.161 0.072-0.065 0.013-0.132 0.007-0.193-0.017-0.124-0.043-0.223-0.116-0.335-0.135-0.049-0.009-0.099-0.006-0.147 0.007s-0.090 0.037-0.124 0.069c-0.046 0.044-0.078 0.097-0.092 0.156-0.010 0.041-0.009 0.064-0.011 0.064-0.001-0.021 0-0.043 0.005-0.064 0.012-0.060 0.044-0.116 0.091-0.161 0.035-0.034 0.079-0.059 0.128-0.073s0.102-0.017 0.153-0.008c0.116 0.020 0.218 0.093 0.338 0.135 0.058 0.022 0.122 0.028 0.183 0.016 0.056-0.016 0.109-0.040 0.157-0.069 0.045-0.027 0.097-0.046 0.151-0.055 0.049-0.006 0.098 0.005 0.137 0.031 0.028 0.018 0.051 0.042 0.067 0.069s0.026 0.057 0.027 0.088c0.003 0.021 0.001 0.042-0.006 0.063z"></path>
<path fill="#263238" style="fill: var(--color3, #263238)" d="M22.379 8.039c0.001-0.017-0.002-0.035-0.009-0.051-0.010-0.018-0.025-0.033-0.044-0.044-0.026-0.013-0.057-0.017-0.087-0.012-0.068 0.009-0.129 0.064-0.218 0.090-0.099 0.021-0.202 0.008-0.291-0.035-0.086-0.041-0.177-0.075-0.271-0.102-0.038-0.010-0.078-0.013-0.117-0.008s-0.077 0.016-0.11 0.035c-0.044 0.027-0.076 0.067-0.091 0.112-0.005 0.017-0.007 0.034-0.009 0.051-0.004-0.017-0.004-0.035 0-0.053 0.013-0.048 0.045-0.090 0.091-0.118 0.035-0.020 0.074-0.033 0.114-0.038s0.082-0.002 0.122 0.008c0.095 0.026 0.186 0.059 0.273 0.101 0.086 0.042 0.186 0.054 0.281 0.035 0.084-0.025 0.145-0.080 0.218-0.088 0.032-0.006 0.065-0.001 0.092 0.014 0.020 0.012 0.036 0.029 0.045 0.049 0.006 0.012 0.008 0.026 0.007 0.039 0.002 0.004 0.003 0.009 0.003 0.013z"></path>
<path fill="#263238" style="fill: var(--color3, #263238)" d="M20.864 7.989h0.139l0.389-0.005 1.336-0.013-0.005 0.010-0.191 0.335c-0.055 0.096-0.109 0.19-0.161 0.281v0.003h-1.159l-0.34-0.605 0.351 0.6-0.005-0.003h1.154l-0.007 0.003 0.161-0.28c0.065-0.115 0.13-0.227 0.191-0.335l0.007 0.010-1.86-0.001z"></path>
<path fill="#000" style="fill: var(--color6, #000)" opacity="0.3" d="M21.243 8.591l0.031 0.059h1.123l0.29-0.624-0.323 0.565h-1.12z"></path>
<path fill="#fafafa" style="fill: var(--color4, #fafafa)" d="M21.965 8.964c0 0 0-0.011-0.007-0.030-0.006-0.020-0.017-0.039-0.034-0.054s-0.037-0.027-0.060-0.033c-0.023-0.006-0.047-0.007-0.070-0.003s-0.045 0.014-0.063 0.028c-0.018 0.014-0.031 0.032-0.039 0.052s-0.009 0.041-0.005 0.062c0.004 0.021 0.015 0.040 0.030 0.056s0.035 0.028 0.057 0.036c0.021 0.007 0.045 0.009 0.067 0.007s0.044-0.011 0.063-0.023c0.025-0.016 0.043-0.038 0.052-0.064 0.006-0.019 0.006-0.030 0.007-0.030 0.002 0.010 0.002 0.021 0 0.031-0.007 0.029-0.025 0.055-0.052 0.073-0.020 0.014-0.043 0.023-0.068 0.026s-0.050 0.001-0.073-0.006c-0.029-0.009-0.055-0.026-0.073-0.048s-0.028-0.049-0.028-0.076c0-0.027 0.010-0.054 0.028-0.076s0.044-0.039 0.073-0.048c0.024-0.008 0.049-0.010 0.074-0.006s0.048 0.013 0.067 0.027c0.026 0.018 0.045 0.044 0.052 0.072 0.002 0.009 0.002 0.019 0 0.029z"></path>
<path fill="#263238" style="fill: var(--color3, #263238)" d="M21.244 7.484c0.008-0.002 0.014-0.006 0.020-0.011s0.010-0.011 0.012-0.017c0.007-0.015 0.007-0.032 0-0.047-0.010-0.020-0.024-0.038-0.041-0.054-0.034-0.038-0.050-0.085-0.044-0.133s0.031-0.092 0.073-0.123c0.029-0.024 0.065-0.047 0.069-0.083-0-0.017-0.005-0.035-0.014-0.050s-0.021-0.030-0.036-0.041c-0.029-0.024-0.053-0.052-0.073-0.082-0.015-0.027-0.023-0.056-0.025-0.086s0.004-0.059 0.017-0.087c0.017-0.037 0.045-0.069 0.082-0.092 0.013-0.009 0.028-0.016 0.044-0.020 0 0-0.015 0.007-0.040 0.024-0.033 0.024-0.058 0.056-0.073 0.092-0.011 0.027-0.016 0.055-0.014 0.083s0.010 0.056 0.024 0.081c0.020 0.029 0.044 0.056 0.073 0.079 0.017 0.012 0.030 0.028 0.040 0.045s0.014 0.037 0.014 0.056c-0.011 0.037-0.037 0.069-0.073 0.091-0.039 0.029-0.064 0.070-0.070 0.115s0.008 0.090 0.040 0.126c0.017 0.017 0.031 0.036 0.041 0.057 0.007 0.016 0.007 0.035 0 0.051-0.020 0.030-0.046 0.030-0.046 0.026z"></path>
<path fill="#263238" style="fill: var(--color3, #263238)" d="M21.438 7.484c0.008-0.002 0.014-0.006 0.020-0.011s0.010-0.011 0.012-0.017c0.007-0.015 0.007-0.032 0-0.047-0.010-0.020-0.024-0.038-0.041-0.054-0.034-0.038-0.050-0.085-0.044-0.133s0.031-0.092 0.073-0.123c0.029-0.024 0.065-0.047 0.069-0.083-0-0.017-0.005-0.035-0.014-0.050s-0.021-0.030-0.036-0.041c-0.029-0.024-0.053-0.052-0.073-0.082-0.015-0.027-0.023-0.056-0.025-0.086s0.004-0.059 0.017-0.087c0.017-0.037 0.045-0.069 0.082-0.092 0.013-0.009 0.028-0.016 0.044-0.020 0 0-0.016 0.007-0.040 0.024-0.033 0.024-0.058 0.056-0.073 0.092-0.011 0.026-0.016 0.055-0.014 0.083s0.010 0.056 0.024 0.081c0.020 0.029 0.044 0.056 0.073 0.079 0.017 0.012 0.030 0.028 0.040 0.045s0.014 0.037 0.014 0.056c-0.011 0.037-0.037 0.069-0.073 0.091-0.029 0.021-0.050 0.050-0.062 0.081-0.010 0.027-0.012 0.055-0.007 0.083s0.018 0.054 0.038 0.076c0.017 0.017 0.031 0.036 0.041 0.057 0.007 0.016 0.007 0.035 0 0.051-0.022 0.030-0.048 0.030-0.046 0.026z"></path>
<path fill="#8baa36" style="fill: var(--color7, #8baa36)" d="M29.222 9.040h-0.118v0.102h-0.087v-0.102h-0.118v-0.072h0.118v-0.101h0.087v0.101h0.118v0.072z"></path>
<path fill="#8baa36" style="fill: var(--color7, #8baa36)" d="M30.027 9.134v0.078h-0.358v-0.064l0.183-0.152c0.016-0.012 0.029-0.026 0.039-0.042 0.006-0.011 0.010-0.023 0.010-0.035 0-0.007-0.001-0.015-0.005-0.021s-0.009-0.013-0.015-0.017c-0.016-0.010-0.036-0.015-0.056-0.013-0.019-0-0.039 0.003-0.056 0.011s-0.032 0.017-0.042 0.031l-0.080-0.045c0.019-0.025 0.045-0.045 0.076-0.057 0.035-0.014 0.073-0.021 0.112-0.021 0.032-0 0.063 0.005 0.092 0.015 0.024 0.009 0.046 0.024 0.061 0.043s0.023 0.041 0.023 0.064c0 0.022-0.006 0.044-0.017 0.064-0.016 0.026-0.037 0.049-0.063 0.068l-0.109 0.091 0.204 0.003z"></path>
<path fill="#263238" style="fill: var(--color3, #263238)" d="M30.877 9.486c0 0 0-0.007 0-0.019s0-0.031 0-0.052c0-0.048 0-0.113-0.004-0.196 0-0.172-0.004-0.414-0.007-0.713l0.014 0.012-2.352 0.005 0.019-0.017v0.504c0 0.164 0 0.32 0 0.475l-0.018-0.016 2.352 0.012c-0.014 0.001-0.028 0.001-0.042 0h-0.128l-0.485 0.004-1.715 0.008v-0.015c0-0.152 0-0.311 0-0.475v-0.504l0.019-0.017 2.366 0.004v0.012c0 0.302-0.005 0.547-0.007 0.72 0 0.082 0 0.147-0.004 0.192v0.050c0.001 0.009-0.002 0.018-0.007 0.026z"></path>
<path fill="#e0e0e0" style="fill: var(--color1, #e0e0e0)" d="M25.126 9.173c-0.041 0.032-0.094 0.052-0.149 0.055v0.085h-0.087v-0.083c-0.041-0.002-0.082-0.009-0.122-0.020-0.034-0.009-0.065-0.023-0.093-0.041l0.047-0.093c0.023 0.015 0.049 0.027 0.076 0.036 0.029 0.009 0.060 0.015 0.091 0.018v-0.128c-0.035-0.007-0.070-0.016-0.103-0.029-0.028-0.010-0.053-0.026-0.073-0.047-0.020-0.024-0.030-0.052-0.028-0.081-0-0.020 0.004-0.040 0.013-0.059s0.022-0.035 0.039-0.049c0.042-0.033 0.095-0.052 0.151-0.055v-0.085h0.087v0.083c0.062 0.003 0.122 0.019 0.175 0.047l-0.043 0.093c-0.040-0.021-0.085-0.035-0.132-0.040v0.128c0.035 0.007 0.069 0.016 0.102 0.028 0.028 0.010 0.053 0.026 0.073 0.046 0.020 0.023 0.030 0.052 0.028 0.081 0.001 0.020-0.004 0.041-0.013 0.059s-0.023 0.036-0.039 0.050zM24.843 8.872c0.014 0.010 0.030 0.017 0.047 0.020v-0.107c-0.018 0.003-0.035 0.010-0.049 0.021-0.010 0.009-0.015 0.022-0.015 0.035-0 0.006 0.001 0.012 0.004 0.017s0.007 0.010 0.012 0.014zM25.022 9.108c0.005-0.004 0.009-0.009 0.012-0.015s0.004-0.012 0.004-0.018c0-0.006-0.001-0.012-0.004-0.017s-0.007-0.010-0.012-0.014c-0.014-0.009-0.029-0.017-0.046-0.021v0.105c0.017-0.003 0.033-0.010 0.046-0.020z"></path>
<path fill="#e0e0e0" style="fill: var(--color1, #e0e0e0)" d="M25.778 9.173c-0.042 0.033-0.094 0.052-0.15 0.055v0.085h-0.086v-0.083c-0.041-0.002-0.082-0.009-0.122-0.020-0.034-0.009-0.065-0.023-0.094-0.041l0.048-0.093c0.022 0.015 0.047 0.027 0.073 0.036 0.029 0.009 0.060 0.015 0.091 0.018v-0.128c-0.036-0.007-0.070-0.016-0.104-0.029-0.028-0.010-0.053-0.026-0.073-0.047-0.020-0.024-0.030-0.052-0.028-0.081-0-0.020 0.004-0.040 0.013-0.059s0.022-0.035 0.039-0.049c0.042-0.033 0.095-0.052 0.151-0.055v-0.085h0.086v0.083c0.062 0.003 0.122 0.019 0.175 0.047l-0.043 0.093c-0.041-0.021-0.086-0.035-0.132-0.040v0.128c0.035 0.006 0.069 0.016 0.103 0.028 0.028 0.010 0.053 0.026 0.073 0.046 0.020 0.023 0.030 0.052 0.028 0.081 0.001 0.020-0.003 0.040-0.011 0.059s-0.021 0.036-0.037 0.050zM25.495 8.872c0.014 0.010 0.030 0.017 0.047 0.020v-0.107c-0.018 0.003-0.035 0.010-0.049 0.021-0.010 0.009-0.015 0.022-0.015 0.035-0 0.006 0.001 0.012 0.004 0.017s0.007 0.010 0.013 0.014zM25.675 9.108c0.005-0.004 0.009-0.009 0.012-0.015s0.004-0.012 0.004-0.018c0-0.006-0.001-0.012-0.004-0.017s-0.007-0.010-0.012-0.014c-0.014-0.009-0.030-0.017-0.047-0.021v0.105c0.017-0.003 0.033-0.010 0.047-0.020z"></path>
<path fill="#263238" style="fill: var(--color3, #263238)" d="M19.782 10.157h0.891l11.026-0.012v0.016c0 1.108 0 2.293 0 3.514v0.017l-11.93-0.017c0-1.103 0.005-1.984 0.007-2.587 0-0.301 0-0.533 0-0.69 0-0.078 0-0.137 0-0.178s0-0.059 0-0.059c0 0 0 0.021 0 0.064s0 0.1 0 0.179c0 0.158 0 0.391 0 0.692 0 0.603 0.004 1.48 0.007 2.58l-0.013-0.011 11.899-0.006-0.019 0.017v-3.519l0.019 0.016-11.887-0.016z"></path>
<path fill="#8baa36" style="fill: var(--color7, #8baa36)" d="M29.222 12.918h-0.118v0.101h-0.087v-0.101h-0.118v-0.073h0.118v-0.101h0.087v0.101h0.118v0.073z"></path>
<path fill="#8baa36" style="fill: var(--color7, #8baa36)" d="M29.856 12.672v0.417h-0.11v-0.34h-0.095v-0.077h0.204z"></path>
<path fill="#263238" style="fill: var(--color3, #263238)" d="M30.877 13.363c0 0 0-0.007 0-0.019s0-0.031 0-0.052c0-0.048 0-0.113-0.004-0.196 0-0.172-0.004-0.414-0.007-0.713l0.014 0.012-2.352 0.005 0.019-0.017v0.505c0 0.164 0 0.32 0 0.474l-0.018-0.016 1.684 0.008 0.49 0.004h0.178c-0.014 0.001-0.028 0.001-0.042 0h-0.128l-0.485 0.005-1.715 0.007v-0.016c0-0.152 0-0.31 0-0.474v-0.496l0.019-0.017 2.366 0.004v0.012c0 0.302-0.005 0.547-0.007 0.721 0 0.082 0 0.147-0.004 0.192v0.050c-0.001 0.006-0.004 0.012-0.007 0.017z"></path>
<path fill="#e0e0e0" style="fill: var(--color1, #e0e0e0)" d="M25.126 13.050c-0.041 0.032-0.094 0.052-0.149 0.055v0.085h-0.087v-0.083c-0.041-0.002-0.082-0.008-0.122-0.020-0.034-0.009-0.065-0.023-0.093-0.041l0.047-0.093c0.023 0.015 0.049 0.027 0.076 0.036 0.029 0.010 0.060 0.016 0.091 0.019v-0.128c-0.035-0.007-0.070-0.017-0.103-0.029-0.028-0.010-0.053-0.026-0.073-0.047-0.020-0.024-0.030-0.053-0.028-0.082-0-0.020 0.004-0.040 0.013-0.059s0.022-0.035 0.039-0.049c0.042-0.033 0.095-0.052 0.151-0.055v-0.080h0.087v0.083c0.062 0.003 0.122 0.018 0.175 0.046l-0.043 0.093c-0.040-0.021-0.085-0.035-0.132-0.040v0.128c0.035 0.007 0.069 0.016 0.102 0.027 0.028 0.010 0.053 0.026 0.073 0.047 0.020 0.023 0.030 0.052 0.028 0.081-0 0.020-0.005 0.039-0.014 0.057s-0.022 0.034-0.038 0.047zM24.843 12.749c0.014 0.010 0.030 0.017 0.047 0.020v-0.107c-0.018 0.003-0.035 0.010-0.049 0.022-0.010 0.009-0.016 0.022-0.015 0.035-0 0.006 0.001 0.012 0.004 0.017s0.007 0.010 0.012 0.014zM25.022 12.986c0.005-0.004 0.009-0.009 0.012-0.015s0.004-0.012 0.004-0.018c0-0.006-0.001-0.012-0.004-0.017s-0.007-0.010-0.012-0.014c-0.014-0.009-0.029-0.016-0.046-0.021v0.105c0.017-0.003 0.033-0.009 0.046-0.020z"></path>
<path fill="#8baa36" style="fill: var(--color7, #8baa36)" d="M21.020 11.414l0.151 1.77c0.002 0.027 0.016 0.051 0.038 0.070s0.051 0.029 0.081 0.029l0.818 0.006c0.030 0 0.060-0.010 0.082-0.028s0.036-0.043 0.039-0.069l0.166-1.757-1.376-0.020z"></path>
<path fill="#000" style="fill: var(--color6, #000)" opacity="0.3" d="M22.386 11.531c-0.283 0.1-0.588 0.14-0.891 0.117-0.396-0.022-0.466-0.106-0.466-0.106l-0.005-0.079h1.368l-0.006 0.069z"></path>
<path fill="#e0e0e0" style="fill: var(--color1, #e0e0e0)" d="M22.453 11.339l0.032 0.122c0 0-0.156 0.114-0.796 0.106-0.573-0.006-0.711-0.1-0.711-0.1l-0.044-0.033 0.039-0.115 1.48 0.020z"></path>
<path fill="#263238" style="fill: var(--color3, #263238)" d="M22.453 11.339h-0.428l-1.048-0.013-0.039 0.115v-0.005l0.047 0.035c0.018 0.010 0.037 0.018 0.057 0.024l0.030 0.009 0.030 0.008c0.040 0.010 0.081 0.017 0.122 0.024 0.079 0.012 0.159 0.021 0.239 0.025 0.145 0.009 0.291 0.012 0.436 0.007 0.118-0.003 0.236-0.013 0.352-0.032 0.046-0.007 0.091-0.018 0.136-0.030 0.035-0.009 0.069-0.023 0.1-0.040l-0.022-0.090-0.006-0.024v-0.008c0 0.003 0 0.005 0 0.008l0.006 0.024c0.006 0.021 0.015 0.051 0.025 0.090-0.031 0.018-0.065 0.032-0.101 0.042-0.045 0.013-0.090 0.024-0.136 0.031-0.116 0.019-0.234 0.030-0.353 0.033-0.146 0.005-0.291 0.003-0.436-0.006-0.080-0.004-0.16-0.013-0.239-0.025-0.041-0.006-0.082-0.014-0.123-0.024-0.010 0-0.020-0.005-0.031-0.008s-0.020-0.006-0.030-0.010c-0.021-0.006-0.040-0.014-0.059-0.024l-0.047-0.035c0.014-0.040 0.027-0.079 0.039-0.115l1.48 0.021-0.001-0.007z"></path>
<path fill="#263238" style="fill: var(--color3, #263238)" d="M20.971 11.328c-0-0.002-0-0.005 0-0.007 0.003-0.006 0.008-0.012 0.015-0.016 0.025-0.014 0.053-0.025 0.082-0.031 0.107-0.023 0.216-0.037 0.325-0.043 0.162-0.010 0.325-0.012 0.487-0.005 0.092 0.005 0.188 0.011 0.291 0.023 0.049 0.006 0.1 0.013 0.151 0.023 0.025 0.005 0.049 0.011 0.073 0.018 0.013 0.004 0.025 0.008 0.037 0.013l0.009 0.004 0.009 0.005c0.003 0.002 0.005 0.004 0.007 0.007s0.001 0.007 0 0.011c-0.001 0.004-0.002 0.007-0.005 0.010l-0.008 0.007c-0.005 0.004-0.011 0.007-0.017 0.010-0.012 0.006-0.024 0.010-0.036 0.014-0.024 0.008-0.048 0.015-0.073 0.020-0.051 0.011-0.101 0.019-0.151 0.026-0.099 0.012-0.195 0.020-0.287 0.023-0.087 0.004-0.174 0.004-0.261 0-0.081 0-0.158-0.008-0.227-0.013-0.109-0.007-0.218-0.021-0.324-0.044-0.029-0.006-0.057-0.017-0.082-0.031-0.007-0.004-0.012-0.009-0.015-0.016-0-0.002-0-0.004 0-0.006 0 0 0 0 0 0.006 0.003 0.006 0.008 0.011 0.015 0.015 0.025 0.014 0.053 0.024 0.082 0.029 0.107 0.022 0.215 0.036 0.324 0.042 0.069 0.005 0.145 0.009 0.226 0.011 0.087 0.004 0.174 0.004 0.26 0 0.092-0.004 0.188-0.011 0.287-0.024 0.049-0.006 0.099-0.015 0.149-0.025 0.025-0.005 0.049-0.012 0.073-0.020 0.012-0.004 0.024-0.009 0.036-0.014 0.005-0.003 0.011-0.006 0.015-0.010 0.005-0.003 0.008-0.006 0.010-0.011-0-0.002-0.001-0.005-0.002-0.007s-0.003-0.004-0.005-0.005c-0.008-0.005-0.008-0.005-0.016-0.009-0.012-0.005-0.023-0.009-0.036-0.013-0.024-0.007-0.048-0.013-0.073-0.017-0.050-0.010-0.1-0.017-0.15-0.023-0.098-0.012-0.194-0.019-0.286-0.023-0.162-0.007-0.325-0.006-0.487 0.003-0.109 0.005-0.218 0.018-0.325 0.040-0.029 0.006-0.056 0.016-0.081 0.029-0.006 0.004-0.012 0.009-0.015 0.015-0.001 0.007-0.001 0.007-0.001 0.007z"></path>
<path fill="#e0e0e0" style="fill: var(--color1, #e0e0e0)" d="M22.134 11.225l0.017 0.069c0 0-0.088 0.070-0.447 0.060s-0.399-0.056-0.399-0.056l-0.010-0.011 0.007-0.073 0.832 0.011z"></path>
<path fill="#263238" style="fill: var(--color3, #263238)" d="M22.134 11.225h-0.241l-0.591-0.007 0.005-0.003c0 0.023-0.005 0.047-0.007 0.072l0.008 0.008c0.002 0.003 0.004 0.005 0.007 0.006 0.020 0.010 0.043 0.017 0.066 0.021 0.023 0.005 0.046 0.009 0.068 0.012 0.045 0.006 0.090 0.010 0.134 0.013 0.081 0.006 0.161 0.008 0.242 0.006 0.066-0.001 0.132-0.006 0.197-0.017 0.025-0.004 0.049-0.010 0.073-0.018 0.020-0.005 0.038-0.013 0.055-0.024l-0.012-0.051v-0.013c-0-0.002-0-0.003 0-0.005 0 0.001 0 0.003 0 0.004l0.004 0.013c0.004 0.012 0.008 0.029 0.015 0.051-0.017 0.011-0.036 0.019-0.056 0.026-0.024 0.008-0.048 0.014-0.073 0.019-0.065 0.011-0.131 0.017-0.198 0.019-0.073 0-0.156 0-0.244-0.006-0.044-0.003-0.089-0.007-0.135-0.013-0.023 0-0.046-0.007-0.069-0.012s-0.047-0.012-0.068-0.022c-0.004-0.002-0.007-0.005-0.009-0.008l-0.007-0.008 0.007-0.072v-0.004h0.004l0.594 0.010 0.175 0.004h0.063l-0.006-0.001z"></path>
<path fill="#263238" style="fill: var(--color3, #263238)" d="M21.301 11.219c0 0 0-0.006 0.009-0.013 0.014-0.008 0.029-0.015 0.046-0.018 0.060-0.013 0.122-0.022 0.183-0.025 0.092-0.006 0.183-0.007 0.275-0.003 0.052 0 0.105 0.005 0.162 0.011 0.028 0.004 0.056 0.008 0.085 0.013 0.014 0.003 0.028 0.007 0.042 0.011 0.007 0.002 0.014 0.005 0.020 0.009 0.004 0.002 0.008 0.004 0.010 0.007s0.004 0.007 0.005 0.011c-0.001 0.004-0.002 0.008-0.005 0.011s-0.006 0.006-0.010 0.008c-0.006 0.004-0.013 0.006-0.020 0.008-0.014 0.005-0.028 0.008-0.043 0.011-0.028 0.006-0.057 0.010-0.085 0.013-0.056 0.006-0.111 0.008-0.162 0.010-0.091 0.003-0.183 0.001-0.274-0.006-0.062-0.004-0.123-0.012-0.183-0.026-0.017-0.004-0.032-0.010-0.047-0.019-0.009-0.006-0.009-0.013-0.008-0.013 0 0.003 0.002 0.005 0.003 0.007s0.004 0.004 0.006 0.005c0.014 0.008 0.030 0.013 0.046 0.017 0.060 0.013 0.121 0.021 0.183 0.024 0.091 0.006 0.182 0.007 0.274 0.004 0.052 0 0.105-0.004 0.162-0.010 0.028-0.003 0.056-0.007 0.084-0.013 0.014-0.002 0.028-0.006 0.041-0.010l0.020-0.008c0.006 0 0.011-0.007 0.011-0.012s-0.005-0.008-0.011-0.011c-0.006-0.003-0.012-0.006-0.019-0.008-0.014-0.004-0.028-0.008-0.041-0.011-0.028-0.006-0.056-0.010-0.084-0.013-0.055-0.006-0.109-0.010-0.161-0.012-0.091-0.004-0.182-0.004-0.274 0-0.061 0.002-0.123 0.010-0.183 0.022-0.016 0.003-0.032 0.009-0.047 0.017-0.003 0.001-0.005 0.003-0.007 0.006s-0.003 0.005-0.003 0.008z"></path>
<path fill="#263238" style="fill: var(--color3, #263238)" d="M21.65 11.204c0.009 0.003 0.019 0.004 0.028 0.005 0.012 0.001 0.024 0.001 0.036 0 0.016-0.003 0.033-0.004 0.049-0.003-0.005-0.144-0.014-0.448-0.022-0.793l0.004 0.004-0.113 0.004 0.004-0.004c0.005 0.222 0.009 0.42 0.012 0.562 0 0.070 0 0.128 0 0.168v0.064c0-0.001 0-0.003 0-0.004v-0.012c0-0.010 0-0.026 0-0.045 0-0.040 0-0.097-0.005-0.167-0.004-0.143-0.010-0.341-0.016-0.564v-0.004h0.004l0.113-0.005h0.005v0.006c0.009 0.348 0.015 0.65 0.017 0.794-0.016-0.001-0.033-0.001-0.049 0-0.012 0.001-0.024 0.001-0.036 0-0.007-0-0.014-0.002-0.021-0.004l-0.012-0.003z"></path>
<path fill="#263238" style="fill: var(--color3, #263238)" d="M21.607 11.196c0 0 0.050 0.006 0.111 0.006s0.112-0.007 0.112-0.004c-0.010 0.004-0.021 0.006-0.032 0.007-0.026 0.004-0.053 0.005-0.080 0.005s-0.053-0.002-0.079-0.006c-0.011-0.001-0.022-0.003-0.032-0.008z"></path>
<path fill="#8baa36" style="fill: var(--color7, #8baa36)" d="M22.947 15.62c0.005-0.023 0.003-0.048-0.005-0.070s-0.024-0.043-0.045-0.058c-0.041-0.030-0.092-0.046-0.145-0.045-0.047-0.001-0.094 0.010-0.135 0.031-0.023 0.012-0.042 0.029-0.057 0.048s-0.023 0.042-0.025 0.066 0.002 0.047 0.012 0.069c0.010 0.022 0.026 0.041 0.046 0.056 0.045 0.035 0.103 0.053 0.162 0.052 0.050 0.001 0.099-0.014 0.136-0.044 0.018-0.013 0.032-0.030 0.042-0.048s0.016-0.038 0.017-0.059z"></path>
<path fill="#263238" style="fill: var(--color3, #263238)" d="M19.782 14.025h0.891l11.026-0.012v0.017c0 1.108 0 2.292 0 3.513v0.017l-11.93-0.006v-0.017c0-1.103 0.005-1.984 0.007-2.587 0-0.3 0-0.533 0-0.69 0-0.077 0-0.137 0-0.177s0-0.060 0-0.060c0 0 0 0.021 0 0.064s0 0.101 0 0.179c0 0.159 0 0.391 0 0.693 0 0.603 0.004 1.48 0.007 2.58l-0.013-0.011 11.899-0.006-0.019 0.017v-3.514l0.019 0.016-11.887-0.016z"></path>
<path fill="#8baa36" style="fill: var(--color7, #8baa36)" d="M29.222 16.785h-0.118v0.101h-0.087v-0.101h-0.118v-0.072h0.118v-0.102h0.087v0.102h0.118v0.072z"></path>
<path fill="#8baa36" style="fill: var(--color7, #8baa36)" d="M29.856 16.54v0.42h-0.11v-0.34h-0.095v-0.077l0.204-0.003z"></path>
<path fill="#263238" style="fill: var(--color3, #263238)" d="M30.878 17.231c0 0 0-0.006 0-0.019s0-0.031 0-0.052c0-0.047 0-0.113-0.004-0.197 0-0.171-0.004-0.414-0.007-0.712l0.014 0.012-2.352 0.005 0.019-0.017v0.504c0 0.164 0 0.32 0 0.474l-0.018-0.015 1.684 0.007 0.49 0.004h0.178c-0.014 0.001-0.028 0.001-0.042 0h-0.128l-0.485 0.005-1.715 0.008v-0.016c0-0.152 0-0.31 0-0.474v-0.491c-0.004 0 0.036-0.032 0.019-0.017l2.366 0.005v0.013c0 0.301-0.005 0.547-0.007 0.72 0 0.082 0 0.147-0.004 0.192v0.049c-0.006 0.008-0.007 0.014-0.007 0.013z"></path>
<path fill="#e0e0e0" style="fill: var(--color1, #e0e0e0)" d="M25.126 16.918c-0.042 0.032-0.094 0.052-0.149 0.055v0.085h-0.087v-0.083c-0.041-0.002-0.082-0.008-0.122-0.020-0.034-0.008-0.065-0.022-0.093-0.041l0.047-0.092c0.023 0.015 0.049 0.027 0.076 0.035 0.029 0.010 0.060 0.016 0.091 0.019v-0.128c-0.035-0.007-0.070-0.017-0.103-0.029-0.028-0.010-0.053-0.026-0.073-0.047-0.020-0.024-0.030-0.052-0.028-0.082-0-0.020 0.004-0.040 0.013-0.059s0.022-0.035 0.039-0.049c0.042-0.033 0.095-0.052 0.151-0.055v-0.084h0.087v0.083c0.062 0.003 0.122 0.018 0.175 0.046l-0.043 0.093c-0.040-0.021-0.085-0.034-0.132-0.039v0.128c0.035 0.007 0.069 0.016 0.102 0.028 0.028 0.010 0.053 0.026 0.073 0.047 0.020 0.023 0.030 0.052 0.028 0.081 0 0.020-0.004 0.041-0.013 0.059s-0.022 0.036-0.039 0.049zM24.843 16.617c0.014 0.010 0.030 0.017 0.047 0.021v-0.108c-0.018 0.003-0.035 0.011-0.049 0.022-0.010 0.009-0.016 0.022-0.015 0.035-0 0.006 0.001 0.012 0.004 0.017s0.007 0.010 0.012 0.014zM25.022 16.853c0.005-0.004 0.009-0.009 0.012-0.015s0.004-0.012 0.004-0.018c0-0.006-0.001-0.012-0.004-0.017s-0.007-0.010-0.012-0.014c-0.014-0.010-0.029-0.017-0.046-0.021v0.104c0.017-0.002 0.033-0.009 0.046-0.020z"></path>
<path fill="#e0e0e0" style="fill: var(--color1, #e0e0e0)" d="M25.719 16.918c-0.041 0.032-0.094 0.052-0.149 0.055v0.085h-0.087v-0.083c-0.041-0.002-0.082-0.008-0.122-0.020-0.034-0.008-0.065-0.022-0.093-0.041l0.047-0.092c0.024 0.015 0.050 0.027 0.077 0.035 0.029 0.010 0.059 0.016 0.090 0.019v-0.128c-0.035-0.007-0.070-0.017-0.103-0.029-0.028-0.010-0.053-0.026-0.073-0.047-0.020-0.024-0.030-0.052-0.029-0.082-0-0.020 0.004-0.040 0.013-0.059s0.022-0.035 0.039-0.049c0.042-0.033 0.095-0.052 0.151-0.055v-0.084h0.087v0.083c0.062 0.003 0.122 0.019 0.175 0.046l-0.044 0.093c-0.040-0.021-0.085-0.034-0.132-0.039v0.128c0.035 0.007 0.069 0.016 0.102 0.028 0.028 0.010 0.053 0.026 0.073 0.047 0.020 0.023 0.030 0.052 0.028 0.081 0.001 0.020-0.004 0.040-0.013 0.059s-0.022 0.036-0.039 0.049zM25.436 16.617c0.014 0.010 0.030 0.017 0.047 0.021v-0.108c-0.018 0.003-0.035 0.011-0.048 0.022-0.010 0.009-0.016 0.022-0.016 0.035-0 0.006 0.001 0.012 0.004 0.017s0.007 0.010 0.012 0.014zM25.616 16.853c0.005-0.004 0.009-0.009 0.012-0.015s0.004-0.012 0.004-0.018c0-0.006-0.001-0.012-0.004-0.017s-0.007-0.010-0.012-0.014c-0.013-0.010-0.029-0.017-0.046-0.021v0.104c0.017-0.002 0.034-0.009 0.047-0.020z"></path>
<path fill="#455a64" style="fill: var(--color2, #455a64)" d="M22.019 15.595c0.070-0.083 0.113-0.181 0.125-0.284 0.015-0.092-0.003-0.186-0.049-0.269-0.004-0.006-0.007-0.012-0.015-0.014s-0.015-0.003-0.022 0c-0.058 0.025-0.108 0.064-0.144 0.112s-0.057 0.103-0.061 0.16 0.009 0.114 0.038 0.165c0.029 0.051 0.073 0.095 0.128 0.126z"></path>
<path fill="#455a64" style="fill: var(--color2, #455a64)" d="M22.245 15.36c0.083-0.028 0.156-0.075 0.211-0.136 0.053-0.054 0.085-0.121 0.092-0.192 0.002-0.005 0.002-0.010 0-0.014-0.004-0.004-0.009-0.006-0.015-0.006-0.049-0.005-0.098 0.002-0.143 0.020s-0.084 0.045-0.113 0.080c-0.029 0.035-0.047 0.076-0.052 0.119s0.003 0.087 0.023 0.126z"></path>
<path fill="#8baa36" style="fill: var(--color7, #8baa36)" d="M22.207 15.588c0.005-0.023 0.004-0.048-0.005-0.070s-0.024-0.043-0.045-0.058c-0.041-0.030-0.092-0.046-0.145-0.045-0.047-0.001-0.094 0.010-0.134 0.031-0.020 0.011-0.037 0.025-0.051 0.042s-0.024 0.036-0.029 0.056c-0.005 0.026-0.002 0.052 0.008 0.077s0.026 0.047 0.049 0.064c0.045 0.035 0.103 0.053 0.162 0.053 0.050 0.001 0.099-0.015 0.136-0.044 0.017-0.013 0.031-0.030 0.041-0.048s0.016-0.038 0.017-0.058z"></path>
<path fill="#455a64" style="fill: var(--color2, #455a64)" d="M22.72 15.717c0.202 0.031 0.402-0.165 0.45-0.293 0.004-0.006 0.006-0.013 0.006-0.020s-0.002-0.014-0.006-0.021c-0.006-0.005-0.014-0.009-0.023-0.011s-0.017-0.001-0.026 0.001c-0.1 0.012-0.192 0.052-0.264 0.113s-0.119 0.143-0.136 0.23z"></path>
<path fill="#8baa36" style="fill: var(--color7, #8baa36)" d="M21.474 15.343c0.005-0.023 0.004-0.048-0.005-0.070s-0.024-0.043-0.045-0.058c-0.041-0.029-0.092-0.045-0.145-0.045-0.047-0.001-0.094 0.010-0.134 0.032-0.023 0.012-0.043 0.028-0.057 0.048s-0.023 0.042-0.026 0.066c-0.002 0.023 0.002 0.047 0.012 0.069s0.026 0.041 0.046 0.056c0.045 0.035 0.103 0.054 0.163 0.053 0.050 0.001 0.099-0.015 0.136-0.044 0.017-0.013 0.031-0.030 0.041-0.048s0.016-0.038 0.017-0.058z"></path>
<path fill="#455a64" style="fill: var(--color2, #455a64)" d="M21.907 15.658c-0.016-0.102-0.063-0.199-0.136-0.28-0.062-0.075-0.149-0.131-0.249-0.162-0.007-0.002-0.014-0.002-0.021 0-0.003 0.002-0.006 0.004-0.009 0.007s-0.004 0.006-0.005 0.009c-0.022 0.054-0.027 0.112-0.014 0.168s0.041 0.109 0.083 0.152c0.043 0.043 0.097 0.076 0.159 0.095s0.127 0.023 0.191 0.012z"></path>
<path fill="#455a64" style="fill: var(--color2, #455a64)" d="M21.171 15.5c-0.040-0.040-0.075-0.083-0.106-0.128-0.031-0.047-0.046-0.1-0.045-0.154-0-0.004 0.001-0.008 0.002-0.012s0.004-0.007 0.007-0.010c0.004-0.002 0.009-0.002 0.013-0.002s0.009 0.001 0.013 0.002c0.114 0.023 0.216 0.076 0.294 0.152s0.126 0.172 0.138 0.274l0.006 0.027c-0.096 0.050-0.21 0.065-0.319 0.042-0.088-0.014-0.171-0.043-0.246-0.085-0.075-0.043-0.128-0.11-0.149-0.187 0.068-0.013 0.138-0.012 0.206 0.002s0.131 0.040 0.186 0.078z"></path>
<path fill="#455a64" style="fill: var(--color2, #455a64)" d="M22.427 15.344c0.099-0.082 0.223-0.137 0.356-0.159 0.008 0.059 0.003 0.118-0.015 0.175s-0.049 0.11-0.091 0.156c-0.042 0.046-0.093 0.085-0.152 0.114s-0.123 0.047-0.19 0.054l-0.008-0.013c-0.019-0.057-0.020-0.118-0.002-0.175s0.053-0.11 0.102-0.151z"></path>
<path fill="#263238" style="fill: var(--color3, #263238)" d="M23.124 15.59h-0.725l-1.791 0.007 0.007-0.010c0.081 0.157 0.168 0.32 0.26 0.483 0.024 0.042 0.049 0.084 0.073 0.128 0.023 0.041 0.052 0.080 0.084 0.116 0.066 0.070 0.147 0.126 0.239 0.167 0.173 0.079 0.364 0.123 0.559 0.128 0.176 0.007 0.352-0.018 0.517-0.075 0.143-0.050 0.269-0.13 0.368-0.234 0.138-0.154 0.249-0.325 0.329-0.508 0.028-0.064 0.047-0.117 0.060-0.151l0.017-0.054c-0.018 0.070-0.042 0.14-0.073 0.207-0.078 0.184-0.188 0.357-0.326 0.512-0.1 0.105-0.228 0.187-0.372 0.238-0.166 0.058-0.344 0.084-0.522 0.077-0.197-0.004-0.39-0.048-0.565-0.128-0.093-0.041-0.176-0.099-0.243-0.17-0.033-0.037-0.062-0.076-0.087-0.118s-0.049-0.084-0.073-0.128c-0.093-0.164-0.179-0.326-0.261-0.483l-0.004-0.010h2.525l0.005 0.005z"></path>
<path fill="#263238" style="fill: var(--color3, #263238)" d="M19.842 17.927h0.891l11.026-0.012v0.017c0 1.108 0 2.292 0 3.513v0.017l-11.93-0.006v-0.017c0-1.103 0.005-1.984 0.007-2.587 0-0.3 0-0.532 0-0.69 0-0.077 0-0.137 0-0.177s0-0.060 0-0.060c0 0 0 0.021 0 0.064s0 0.101 0 0.179c0 0.159 0 0.391 0 0.693 0 0.603 0.004 1.48 0.007 2.58l-0.013-0.011 11.899-0.006-0.019 0.017v-3.514l0.019 0.016-11.887-0.016z"></path>
<path fill="#8baa36" style="fill: var(--color7, #8baa36)" d="M29.282 20.687h-0.118v0.101h-0.087v-0.101h-0.118v-0.072h0.118v-0.102h0.087v0.102h0.118v0.072z"></path>
<path fill="#8baa36" style="fill: var(--color7, #8baa36)" d="M29.916 20.442v0.42h-0.11v-0.34h-0.095v-0.077l0.204-0.003z"></path>
<path fill="#263238" style="fill: var(--color3, #263238)" d="M30.938 21.132c0 0 0-0.006 0-0.019s0-0.031 0-0.052c0-0.047 0-0.113-0.004-0.197 0-0.171-0.004-0.414-0.007-0.712l0.014 0.012-2.352 0.005 0.019-0.017v0.504c0 0.164 0 0.32 0 0.474l-0.018-0.015 1.684 0.007 0.49 0.004h0.178c-0.014 0.001-0.028 0.001-0.042 0h-0.128l-0.485 0.005-1.715 0.008v-0.016c0-0.152 0-0.31 0-0.474v-0.491c-0.004 0 0.036-0.032 0.019-0.017l2.366 0.005v0.013c0 0.301-0.005 0.547-0.007 0.72 0 0.082 0 0.147-0.004 0.192v0.049c-0.006 0.008-0.007 0.014-0.007 0.013z"></path>
<path fill="#e0e0e0" style="fill: var(--color1, #e0e0e0)" d="M25.186 20.82c-0.042 0.032-0.094 0.052-0.149 0.055v0.085h-0.087v-0.083c-0.041-0.002-0.082-0.008-0.122-0.020-0.034-0.008-0.065-0.022-0.093-0.041l0.047-0.092c0.024 0.015 0.049 0.027 0.076 0.035 0.029 0.010 0.060 0.016 0.091 0.019v-0.128c-0.035-0.007-0.070-0.017-0.103-0.029-0.028-0.010-0.053-0.026-0.073-0.047-0.020-0.024-0.030-0.052-0.028-0.082-0-0.020 0.004-0.040 0.013-0.059s0.022-0.035 0.039-0.049c0.042-0.033 0.095-0.052 0.151-0.055v-0.084h0.087v0.083c0.062 0.003 0.122 0.018 0.175 0.046l-0.043 0.093c-0.040-0.021-0.085-0.034-0.132-0.039v0.128c0.035 0.007 0.069 0.016 0.102 0.028 0.028 0.010 0.053 0.026 0.073 0.047 0.020 0.023 0.030 0.052 0.028 0.081 0 0.020-0.004 0.041-0.013 0.059s-0.022 0.036-0.039 0.049zM24.903 20.519c0.014 0.010 0.030 0.017 0.047 0.021v-0.108c-0.018 0.003-0.035 0.011-0.049 0.022-0.010 0.009-0.016 0.022-0.015 0.035-0 0.006 0.001 0.012 0.004 0.017s0.007 0.010 0.012 0.014zM25.082 20.755c0.005-0.004 0.009-0.009 0.012-0.015s0.004-0.012 0.004-0.018c0-0.006-0.001-0.012-0.004-0.017s-0.007-0.010-0.012-0.014c-0.014-0.010-0.029-0.017-0.046-0.021v0.104c0.017-0.002 0.033-0.009 0.046-0.020z"></path>
<path fill="#e0e0e0" style="fill: var(--color1, #e0e0e0)" d="M25.779 20.82c-0.041 0.032-0.094 0.052-0.149 0.055v0.085h-0.087v-0.083c-0.041-0.002-0.082-0.008-0.122-0.020-0.034-0.008-0.065-0.022-0.093-0.041l0.047-0.092c0.024 0.015 0.050 0.027 0.077 0.035 0.029 0.010 0.059 0.016 0.090 0.019v-0.128c-0.035-0.007-0.070-0.017-0.103-0.029-0.028-0.010-0.053-0.026-0.073-0.047-0.020-0.024-0.030-0.052-0.029-0.082-0-0.020 0.004-0.040 0.013-0.059s0.022-0.035 0.039-0.049c0.042-0.033 0.095-0.052 0.151-0.055v-0.084h0.087v0.083c0.062 0.003 0.122 0.019 0.175 0.046l-0.044 0.093c-0.040-0.021-0.085-0.034-0.132-0.039v0.128c0.035 0.007 0.069 0.016 0.102 0.028 0.028 0.010 0.053 0.026 0.073 0.047 0.020 0.023 0.030 0.052 0.028 0.081 0.001 0.020-0.004 0.040-0.013 0.059s-0.022 0.036-0.039 0.049zM25.496 20.519c0.014 0.010 0.030 0.017 0.047 0.021v-0.108c-0.018 0.003-0.035 0.011-0.048 0.022-0.010 0.009-0.016 0.022-0.016 0.035-0 0.006 0.001 0.012 0.004 0.017s0.007 0.010 0.012 0.014zM25.676 20.755c0.005-0.004 0.009-0.009 0.012-0.015s0.004-0.012 0.004-0.018c0-0.006-0.001-0.012-0.004-0.017s-0.007-0.010-0.012-0.014c-0.013-0.010-0.029-0.017-0.046-0.021v0.104c0.017-0.002 0.034-0.009 0.047-0.020z"></path>
<path fill="#455a64" style="fill: var(--color2, #455a64)" d="M22.079 19.497c0.070-0.083 0.113-0.181 0.125-0.284 0.015-0.092-0.003-0.186-0.049-0.269-0.004-0.006-0.007-0.012-0.015-0.014s-0.015-0.003-0.022 0c-0.058 0.025-0.108 0.064-0.144 0.112s-0.057 0.103-0.061 0.16c-0.004 0.057 0.009 0.114 0.038 0.165s0.073 0.095 0.128 0.126z"></path>
<path fill="#455a64" style="fill: var(--color2, #455a64)" d="M22.305 19.262c0.083-0.028 0.156-0.075 0.211-0.136 0.053-0.054 0.085-0.121 0.092-0.192 0.002-0.005 0.002-0.010 0-0.014-0.004-0.004-0.009-0.006-0.015-0.006-0.049-0.005-0.098 0.002-0.143 0.020s-0.084 0.045-0.113 0.080c-0.029 0.035-0.047 0.076-0.052 0.119s0.003 0.087 0.023 0.126z"></path>
<path fill="#8baa36" style="fill: var(--color7, #8baa36)" d="M22.267 19.49c0.005-0.023 0.004-0.048-0.005-0.070s-0.024-0.043-0.045-0.058c-0.041-0.030-0.092-0.046-0.145-0.045-0.047-0.001-0.094 0.010-0.134 0.031-0.020 0.011-0.038 0.025-0.051 0.042s-0.024 0.036-0.029 0.056c-0.005 0.026-0.002 0.052 0.007 0.077s0.027 0.047 0.049 0.064c0.045 0.035 0.103 0.053 0.162 0.052 0.050 0.001 0.099-0.015 0.136-0.044 0.017-0.013 0.031-0.030 0.041-0.048s0.016-0.038 0.017-0.058z"></path>
<path fill="#455a64" style="fill: var(--color2, #455a64)" d="M22.78 19.619c0.202 0.031 0.402-0.165 0.45-0.293 0.004-0.006 0.006-0.013 0.006-0.020s-0.002-0.014-0.006-0.020c-0.006-0.005-0.014-0.009-0.023-0.011s-0.017-0.001-0.026 0.001c-0.1 0.012-0.192 0.052-0.264 0.113s-0.119 0.142-0.136 0.23z"></path>
<path fill="#8baa36" style="fill: var(--color7, #8baa36)" d="M21.534 19.245c0.005-0.023 0.004-0.047-0.005-0.070s-0.024-0.043-0.045-0.058c-0.041-0.029-0.093-0.045-0.145-0.045-0.047-0.001-0.094 0.010-0.134 0.032-0.023 0.012-0.043 0.028-0.057 0.048s-0.023 0.042-0.026 0.066c-0.002 0.023 0.002 0.047 0.012 0.069s0.026 0.041 0.046 0.056c0.045 0.035 0.103 0.054 0.163 0.052 0.050 0.001 0.099-0.015 0.136-0.044 0.017-0.013 0.031-0.030 0.041-0.048s0.016-0.038 0.017-0.058z"></path>
<path fill="#455a64" style="fill: var(--color2, #455a64)" d="M21.967 19.56c-0.016-0.102-0.063-0.199-0.136-0.28-0.062-0.075-0.149-0.131-0.249-0.162-0.007-0.002-0.014-0.002-0.021 0-0.003 0.002-0.006 0.004-0.009 0.007s-0.004 0.006-0.005 0.009c-0.022 0.054-0.027 0.112-0.014 0.168s0.041 0.109 0.083 0.152c0.043 0.043 0.097 0.076 0.159 0.095s0.127 0.023 0.191 0.012z"></path>
<path fill="#455a64" style="fill: var(--color2, #455a64)" d="M21.231 19.402c-0.040-0.040-0.075-0.083-0.106-0.128-0.031-0.047-0.046-0.1-0.045-0.154-0-0.004 0.001-0.008 0.002-0.012s0.004-0.007 0.007-0.010c0.004-0.002 0.009-0.002 0.013-0.002s0.009 0.001 0.013 0.002c0.114 0.023 0.216 0.076 0.294 0.152s0.126 0.172 0.138 0.274l0.006 0.027c-0.096 0.050-0.21 0.065-0.319 0.042-0.088-0.014-0.171-0.043-0.246-0.085-0.075-0.043-0.128-0.11-0.149-0.187 0.068-0.013 0.138-0.012 0.206 0.002s0.131 0.040 0.186 0.078z"></path>
<path fill="#455a64" style="fill: var(--color2, #455a64)" d="M22.487 19.246c0.099-0.082 0.223-0.137 0.356-0.159 0.008 0.059 0.003 0.118-0.015 0.175s-0.049 0.11-0.091 0.156c-0.042 0.046-0.093 0.085-0.152 0.114s-0.123 0.047-0.19 0.054l-0.008-0.013c-0.019-0.057-0.020-0.118-0.002-0.175s0.053-0.11 0.102-0.151z"></path>
<path fill="#263238" style="fill: var(--color3, #263238)" d="M23.184 19.492h-0.725l-1.791 0.007 0.007-0.010c0.081 0.157 0.168 0.32 0.26 0.483 0.024 0.042 0.049 0.084 0.073 0.128 0.023 0.041 0.052 0.080 0.084 0.116 0.066 0.070 0.147 0.126 0.239 0.167 0.173 0.079 0.364 0.123 0.559 0.128 0.176 0.007 0.352-0.018 0.517-0.075 0.143-0.050 0.269-0.13 0.368-0.234 0.138-0.154 0.249-0.325 0.329-0.508 0.028-0.064 0.047-0.116 0.060-0.151l0.017-0.054c-0.018 0.070-0.042 0.14-0.073 0.207-0.078 0.184-0.188 0.357-0.326 0.512-0.1 0.105-0.228 0.187-0.372 0.238-0.166 0.058-0.344 0.084-0.522 0.077-0.197-0.004-0.39-0.048-0.565-0.128-0.093-0.041-0.176-0.099-0.243-0.17-0.033-0.037-0.062-0.076-0.087-0.118s-0.049-0.084-0.073-0.128c-0.093-0.164-0.179-0.326-0.261-0.483l-0.004-0.010h2.525l0.005 0.005z"></path>
<path fill="#263238" style="fill: var(--color3, #263238)" d="M19.911 21.756h0.891l11.026-0.012v0.017c0 1.108 0 2.292 0 3.513v0.017l-11.93-0.006v-0.017c0-1.103 0.005-1.984 0.007-2.587 0-0.3 0-0.532 0-0.69 0-0.077 0-0.137 0-0.177s0-0.060 0-0.060c0 0 0 0.021 0 0.064s0 0.101 0 0.179c0 0.159 0 0.391 0 0.693 0 0.603 0.004 1.48 0.007 2.58l-0.013-0.011 11.899-0.006-0.019 0.017v-3.514l0.019 0.016-11.887-0.016z"></path>
<path fill="#8baa36" style="fill: var(--color7, #8baa36)" d="M29.351 24.516h-0.118v0.101h-0.087v-0.101h-0.118v-0.072h0.118v-0.102h0.087v0.102h0.118v0.072z"></path>
<path fill="#8baa36" style="fill: var(--color7, #8baa36)" d="M29.984 24.271v0.42h-0.11v-0.34h-0.095v-0.077l0.204-0.003z"></path>
<path fill="#263238" style="fill: var(--color3, #263238)" d="M31.006 24.962c0 0 0-0.006 0-0.019s0-0.031 0-0.052c0-0.047 0-0.113-0.004-0.197 0-0.171-0.004-0.414-0.007-0.712l0.014 0.012-2.352 0.005 0.019-0.017v0.504c0 0.164 0 0.32 0 0.474l-0.018-0.015 1.684 0.007 0.49 0.004h0.178c-0.014 0.001-0.028 0.001-0.042 0h-0.128l-0.485 0.005-1.715 0.008v-0.016c0-0.152 0-0.31 0-0.474v-0.491c-0.004 0 0.036-0.032 0.019-0.017l2.366 0.005v0.013c0 0.301-0.005 0.547-0.007 0.72 0 0.082 0 0.147-0.004 0.192v0.049c-0.006 0.008-0.007 0.014-0.007 0.013z"></path>
<path fill="#e0e0e0" style="fill: var(--color1, #e0e0e0)" d="M25.254 24.649c-0.042 0.032-0.094 0.052-0.149 0.055v0.085h-0.087v-0.083c-0.041-0.002-0.082-0.008-0.122-0.020-0.034-0.008-0.065-0.022-0.093-0.041l0.047-0.092c0.024 0.015 0.049 0.027 0.076 0.035 0.029 0.010 0.060 0.016 0.091 0.019v-0.128c-0.035-0.007-0.070-0.017-0.103-0.029-0.028-0.010-0.053-0.026-0.073-0.047-0.020-0.024-0.030-0.052-0.028-0.082-0-0.020 0.004-0.040 0.013-0.059s0.022-0.035 0.039-0.049c0.042-0.033 0.095-0.052 0.151-0.055v-0.084h0.087v0.083c0.062 0.003 0.122 0.018 0.175 0.046l-0.043 0.093c-0.040-0.021-0.085-0.034-0.132-0.039v0.128c0.035 0.007 0.069 0.016 0.102 0.028 0.028 0.010 0.053 0.026 0.073 0.047 0.020 0.023 0.030 0.052 0.028 0.081 0 0.020-0.004 0.041-0.013 0.059s-0.022 0.036-0.039 0.049zM24.971 24.348c0.014 0.010 0.030 0.017 0.047 0.021v-0.108c-0.018 0.003-0.035 0.011-0.049 0.022-0.010 0.009-0.016 0.022-0.015 0.035-0 0.006 0.001 0.012 0.004 0.017s0.007 0.010 0.012 0.014zM25.151 24.584c0.005-0.004 0.009-0.009 0.012-0.015s0.004-0.012 0.004-0.018c0-0.006-0.001-0.012-0.004-0.017s-0.007-0.010-0.012-0.014c-0.014-0.010-0.029-0.017-0.046-0.021v0.104c0.017-0.002 0.033-0.009 0.046-0.020z"></path>
<path fill="#e0e0e0" style="fill: var(--color1, #e0e0e0)" d="M25.847 24.649c-0.041 0.032-0.094 0.052-0.149 0.055v0.085h-0.087v-0.083c-0.041-0.002-0.082-0.008-0.122-0.020-0.034-0.008-0.065-0.022-0.093-0.041l0.047-0.092c0.024 0.015 0.050 0.027 0.077 0.035 0.029 0.010 0.059 0.016 0.090 0.019v-0.128c-0.035-0.007-0.070-0.017-0.103-0.029-0.028-0.010-0.053-0.026-0.073-0.047-0.020-0.024-0.030-0.052-0.029-0.082-0-0.020 0.004-0.040 0.013-0.059s0.022-0.035 0.039-0.049c0.042-0.033 0.095-0.052 0.151-0.055v-0.084h0.087v0.083c0.062 0.003 0.122 0.019 0.175 0.046l-0.044 0.093c-0.040-0.021-0.085-0.034-0.132-0.039v0.128c0.035 0.007 0.069 0.016 0.102 0.028 0.028 0.010 0.053 0.026 0.073 0.047 0.020 0.023 0.030 0.052 0.028 0.081 0.001 0.020-0.004 0.040-0.013 0.059s-0.022 0.036-0.039 0.049zM25.564 24.348c0.014 0.010 0.030 0.017 0.047 0.021v-0.108c-0.018 0.003-0.035 0.011-0.048 0.022-0.010 0.009-0.016 0.022-0.016 0.035-0 0.006 0.001 0.012 0.004 0.017s0.007 0.010 0.012 0.014zM25.745 24.584c0.005-0.004 0.009-0.009 0.012-0.015s0.004-0.012 0.004-0.018c0-0.006-0.001-0.012-0.004-0.017s-0.007-0.010-0.012-0.014c-0.013-0.010-0.029-0.017-0.046-0.021v0.104c0.017-0.002 0.034-0.009 0.047-0.020z"></path>
<path fill="#455a64" style="fill: var(--color2, #455a64)" d="M22.148 23.326c0.070-0.083 0.113-0.181 0.125-0.284 0.015-0.092-0.003-0.186-0.049-0.269-0.004-0.006-0.007-0.012-0.015-0.014s-0.015-0.003-0.022 0c-0.058 0.025-0.108 0.064-0.144 0.112s-0.057 0.103-0.061 0.16c-0.004 0.057 0.009 0.114 0.038 0.165s0.073 0.095 0.128 0.126z"></path>
<path fill="#455a64" style="fill: var(--color2, #455a64)" d="M22.374 23.091c0.083-0.028 0.156-0.075 0.211-0.136 0.053-0.054 0.085-0.121 0.092-0.192 0.002-0.005 0.002-0.010 0-0.014-0.004-0.004-0.009-0.006-0.015-0.006-0.049-0.005-0.098 0.002-0.143 0.020s-0.084 0.045-0.113 0.080c-0.029 0.035-0.047 0.076-0.052 0.119s0.003 0.087 0.023 0.126z"></path>
<path fill="#8baa36" style="fill: var(--color7, #8baa36)" d="M22.335 23.319c0.005-0.023 0.004-0.048-0.005-0.070s-0.024-0.043-0.045-0.058c-0.041-0.030-0.092-0.046-0.145-0.045-0.047-0.001-0.094 0.010-0.134 0.031-0.020 0.011-0.038 0.025-0.051 0.042s-0.024 0.036-0.029 0.056c-0.005 0.026-0.002 0.052 0.007 0.077s0.027 0.047 0.049 0.064c0.045 0.035 0.103 0.053 0.162 0.052 0.050 0.001 0.099-0.015 0.136-0.044 0.017-0.013 0.031-0.030 0.041-0.048s0.016-0.038 0.017-0.058z"></path>
<path fill="#455a64" style="fill: var(--color2, #455a64)" d="M22.848 23.448c0.202 0.031 0.402-0.165 0.45-0.293 0.004-0.006 0.006-0.013 0.006-0.020s-0.002-0.014-0.006-0.020c-0.006-0.005-0.014-0.009-0.023-0.011s-0.017-0.001-0.026 0.001c-0.1 0.012-0.192 0.052-0.264 0.113s-0.119 0.142-0.136 0.23z"></path>
<path fill="#8baa36" style="fill: var(--color7, #8baa36)" d="M21.602 23.074c0.005-0.023 0.004-0.047-0.005-0.070s-0.024-0.043-0.045-0.058c-0.041-0.029-0.093-0.045-0.145-0.045-0.047-0.001-0.094 0.010-0.134 0.032-0.023 0.012-0.043 0.028-0.057 0.048s-0.023 0.042-0.026 0.066c-0.002 0.023 0.002 0.047 0.012 0.069s0.026 0.041 0.046 0.056c0.045 0.035 0.103 0.054 0.163 0.052 0.050 0.001 0.099-0.015 0.136-0.044 0.017-0.013 0.031-0.030 0.041-0.048s0.016-0.038 0.017-0.058z"></path>
<path fill="#455a64" style="fill: var(--color2, #455a64)" d="M22.036 23.389c-0.016-0.102-0.063-0.199-0.136-0.28-0.062-0.075-0.149-0.131-0.249-0.162-0.007-0.002-0.014-0.002-0.021 0-0.003 0.002-0.006 0.004-0.009 0.007s-0.004 0.006-0.005 0.009c-0.022 0.054-0.027 0.112-0.014 0.168s0.041 0.109 0.083 0.152c0.043 0.043 0.097 0.076 0.159 0.095s0.127 0.023 0.191 0.012z"></path>
<path fill="#455a64" style="fill: var(--color2, #455a64)" d="M21.299 23.231c-0.040-0.040-0.075-0.083-0.106-0.128-0.031-0.047-0.046-0.1-0.045-0.154-0-0.004 0.001-0.008 0.002-0.012s0.004-0.007 0.007-0.010c0.004-0.002 0.009-0.002 0.013-0.002s0.009 0.001 0.013 0.002c0.114 0.023 0.216 0.076 0.294 0.152s0.126 0.172 0.138 0.274l0.006 0.027c-0.096 0.050-0.21 0.065-0.319 0.042-0.088-0.014-0.171-0.043-0.246-0.085-0.075-0.043-0.128-0.11-0.149-0.187 0.068-0.013 0.138-0.012 0.206 0.002s0.131 0.040 0.186 0.078z"></path>
<path fill="#455a64" style="fill: var(--color2, #455a64)" d="M22.556 23.075c0.099-0.082 0.223-0.137 0.356-0.159 0.008 0.059 0.003 0.118-0.015 0.175s-0.049 0.11-0.091 0.156c-0.042 0.046-0.093 0.085-0.152 0.114s-0.123 0.047-0.19 0.054l-0.008-0.013c-0.019-0.057-0.020-0.118-0.002-0.175s0.053-0.11 0.102-0.151z"></path>
<path fill="#263238" style="fill: var(--color3, #263238)" d="M23.252 23.321h-0.725l-1.791 0.007 0.007-0.010c0.081 0.157 0.168 0.32 0.26 0.483 0.024 0.042 0.049 0.084 0.073 0.128 0.023 0.041 0.052 0.080 0.084 0.116 0.066 0.070 0.147 0.126 0.239 0.167 0.173 0.079 0.364 0.123 0.559 0.128 0.176 0.007 0.352-0.018 0.517-0.075 0.143-0.050 0.269-0.13 0.368-0.234 0.138-0.154 0.249-0.325 0.329-0.508 0.028-0.064 0.047-0.116 0.060-0.151l0.017-0.054c-0.018 0.070-0.042 0.14-0.073 0.207-0.078 0.184-0.188 0.357-0.326 0.512-0.1 0.105-0.228 0.187-0.372 0.238-0.166 0.058-0.344 0.084-0.522 0.077-0.197-0.004-0.39-0.048-0.565-0.128-0.093-0.041-0.176-0.099-0.243-0.17-0.033-0.037-0.062-0.076-0.087-0.118s-0.049-0.084-0.073-0.128c-0.093-0.164-0.179-0.326-0.261-0.483l-0.004-0.010h2.525l0.005 0.005z"></path>
<path fill="#fafafa" style="fill: var(--color4, #fafafa)" d="M11.636 6.992h5.34c0.101 0 0.198 0.035 0.27 0.098s0.112 0.149 0.112 0.238v4.698c0 0.089-0.040 0.175-0.112 0.238s-0.169 0.098-0.27 0.098h-3.977c-0.364 0.271-1.059 0.818-1.059 0.818l-0.052-0.818h-0.252c-0.101-0-0.198-0.036-0.27-0.099s-0.112-0.148-0.112-0.237v-4.698c0-0.089 0.040-0.174 0.112-0.237s0.168-0.098 0.27-0.099z"></path>
<path fill="#263238" style="fill: var(--color3, #263238)" d="M11.636 6.992c-0.041 0.003-0.083 0.010-0.122 0.021-0.057 0.018-0.108 0.048-0.15 0.087s-0.072 0.086-0.089 0.137c-0.016 0.077-0.020 0.155-0.014 0.232 0 0.087 0 0.181 0 0.283 0 0.204 0 0.438 0 0.7 0 0.524 0 1.16 0.004 1.887 0 0.364 0 0.75 0 1.157v0.309c0 0.052 0 0.104 0 0.157-0.004 0.052 0.001 0.104 0.015 0.154 0.016 0.050 0.046 0.096 0.087 0.133s0.092 0.066 0.148 0.082c0.058 0.015 0.119 0.021 0.179 0.017h0.205v0.013c0.017 0.256 0.034 0.534 0.052 0.819l-0.029-0.011 1.069-0.82h3.368c0.218 0 0.431 0 0.642 0 0.076-0.005 0.148-0.031 0.206-0.074s0.1-0.101 0.119-0.166c0.011-0.044 0.015-0.089 0.012-0.134v-1.095c0-0.716 0-1.408 0-2.063 0-0.329 0-0.649 0-0.96 0-0.155 0-0.309 0-0.46 0.001-0.037-0-0.074-0.004-0.111-0.005-0.035-0.018-0.070-0.036-0.102-0.037-0.063-0.096-0.114-0.17-0.145-0.036-0.015-0.075-0.025-0.114-0.029-0.039 0-0.080 0-0.121 0h-1.602l-2.677-0.005 4.279-0.005c0.041 0 0.081 0 0.124 0 0.065 0.007 0.127 0.028 0.181 0.060s0.098 0.077 0.128 0.128c0.020 0.035 0.034 0.072 0.039 0.111 0.005 0.038 0.006 0.076 0.004 0.115 0 0.151 0 0.305 0 0.46 0 0.311 0 0.631 0 0.96 0 0.657 0 1.348 0 2.063 0 0.358 0 0.72 0 1.088 0.003 0.048-0.002 0.095-0.013 0.142-0.014 0.047-0.038 0.090-0.073 0.128-0.034 0.039-0.077 0.071-0.127 0.094s-0.104 0.037-0.159 0.040c-0.218 0-0.428 0-0.645 0h-3.356l0.012-0.004c-0.364 0.282-0.728 0.558-1.059 0.817l-0.027 0.021v-0.032c-0.018-0.284-0.035-0.562-0.051-0.818l0.017 0.014h-0.189c-0.064 0.004-0.128-0.003-0.19-0.019-0.061-0.018-0.116-0.049-0.16-0.090s-0.077-0.091-0.095-0.145c-0.014-0.053-0.019-0.108-0.015-0.162v-0.466c0-0.407 0-0.794 0-1.157 0-0.727 0-1.363 0.004-1.887 0-0.262 0-0.496 0-0.7 0-0.102 0-0.196 0-0.283-0.006-0.079-0-0.158 0.017-0.235 0.017-0.052 0.049-0.1 0.092-0.139s0.096-0.069 0.155-0.086c0.030-0.008 0.061-0.014 0.092-0.015l0.035-0.012z"></path>
<path fill="#afe814" style="fill: var(--color5, #afe814)" d="M14.518 9.778c-0.021 0-0.040-0.007-0.055-0.020s-0.023-0.030-0.024-0.048l-0.092-1.956c-0-0.009 0.002-0.019 0.005-0.028s0.010-0.017 0.017-0.024c0.007-0.007 0.016-0.012 0.026-0.016s0.020-0.006 0.031-0.006h0.111c0.010 0 0.021 0.002 0.030 0.005s0.018 0.009 0.026 0.015 0.013 0.014 0.017 0.023c0.004 0.009 0.006 0.018 0.006 0.027l-0.019 1.957c-0 0.019-0.009 0.036-0.024 0.049s-0.035 0.020-0.056 0.020z"></path>
<path fill="#afe814" style="fill: var(--color5, #afe814)" d="M14.696 9.786c-0.019-0.006-0.035-0.019-0.044-0.035s-0.011-0.035-0.004-0.053l0.677-1.865c0.003-0.009 0.008-0.017 0.015-0.025s0.016-0.013 0.025-0.017c0.010-0.004 0.020-0.007 0.031-0.007s0.022 0.001 0.032 0.004l0.104 0.033c0.020 0.007 0.036 0.020 0.045 0.037s0.010 0.036 0.002 0.054l-0.781 1.832c-0.008 0.017-0.022 0.031-0.041 0.039s-0.041 0.009-0.060 0.003z"></path>
<path fill="#e0e0e0" style="fill: var(--color1, #e0e0e0)" d="M15.455 9.288c-0.041-0.055-0.094-0.101-0.157-0.136s-0.133-0.058-0.207-0.068c-0.145-0.016-0.291 0.007-0.422 0.064-0.103 0.043-0.209 0.102-0.319 0.083-0.076-0.023-0.147-0.058-0.209-0.104-0.082-0.049-0.174-0.084-0.272-0.101s-0.198-0.017-0.295 0c-0.201 0.041-0.377 0.147-0.491 0.298-0.047 0.055-0.081 0.119-0.097 0.187s-0.016 0.138 0.001 0.206l2.511-0.008c0.030-0.068 0.041-0.142 0.034-0.215s-0.034-0.143-0.078-0.206z"></path>
<path fill="#263238" style="fill: var(--color3, #263238)" d="M15.389 9.664c0.003-0.036 0.003-0.073 0-0.109-0.011-0.098-0.063-0.189-0.146-0.256-0.057-0.044-0.129-0.071-0.204-0.077-0.087-0.007-0.176 0.004-0.258 0.032-0.087 0.027-0.17 0.077-0.269 0.112-0.051 0.019-0.106 0.027-0.162 0.026-0.057-0.004-0.112-0.017-0.163-0.040-0.102-0.043-0.187-0.101-0.277-0.142-0.086-0.040-0.182-0.059-0.279-0.054-0.087 0.004-0.172 0.026-0.248 0.064-0.066 0.035-0.123 0.080-0.169 0.134-0.067 0.079-0.113 0.171-0.135 0.268-0.015 0.069-0.014 0.109-0.018 0.108-0.002-0.009-0.002-0.019 0-0.028-0-0.027 0.002-0.055 0.006-0.082 0.016-0.101 0.060-0.197 0.127-0.28 0.047-0.058 0.107-0.107 0.175-0.144 0.080-0.042 0.17-0.068 0.263-0.073 0.103-0.005 0.206 0.014 0.297 0.056 0.095 0.042 0.18 0.1 0.276 0.141 0.045 0.020 0.095 0.033 0.146 0.036 0.050 0.001 0.1-0.007 0.146-0.024 0.093-0.032 0.178-0.083 0.271-0.11 0.087-0.028 0.18-0.039 0.273-0.031 0.082 0.008 0.158 0.039 0.218 0.088 0.084 0.072 0.134 0.17 0.139 0.274 0.001 0.027-0.001 0.055-0.006 0.082 0.001 0.017-0.002 0.028-0.004 0.028z"></path>
<path fill="#263238" style="fill: var(--color3, #263238)" d="M15.269 9.688c0.002-0.032 0.002-0.063 0-0.095-0.004-0.042-0.019-0.083-0.043-0.12s-0.056-0.069-0.096-0.094c-0.054-0.033-0.12-0.047-0.186-0.038-0.075 0.014-0.146 0.041-0.21 0.079-0.073 0.045-0.153 0.080-0.237 0.105-0.096 0.019-0.196 0.011-0.286-0.024-0.183-0.064-0.327-0.17-0.488-0.198-0.070-0.013-0.142-0.010-0.21 0.009s-0.13 0.052-0.179 0.097c-0.067 0.063-0.114 0.14-0.136 0.224-0.016 0.060-0.015 0.095-0.019 0.094s0-0.008 0-0.025c0-0.024 0.003-0.048 0.007-0.072 0.017-0.089 0.062-0.171 0.131-0.238 0.048-0.046 0.108-0.081 0.175-0.104 0.077-0.026 0.161-0.033 0.242-0.018 0.172 0.029 0.32 0.138 0.495 0.198 0.083 0.032 0.175 0.040 0.263 0.023 0.081-0.024 0.158-0.057 0.228-0.1 0.067-0.040 0.143-0.068 0.223-0.081 0.073-0.008 0.146 0.008 0.205 0.047 0.048 0.030 0.086 0.072 0.108 0.12 0.017 0.035 0.027 0.073 0.029 0.112 0.001 0.025-0.002 0.050-0.009 0.075-0.001 0.008-0.004 0.016-0.009 0.024z"></path>
<path fill="#263238" style="fill: var(--color3, #263238)" d="M15.114 9.688c0-0.025-0.005-0.050-0.016-0.072-0.015-0.030-0.042-0.055-0.075-0.069s-0.072-0.018-0.108-0.011c-0.052 0.010-0.101 0.029-0.146 0.055-0.053 0.031-0.111 0.057-0.17 0.078-0.146 0.031-0.3 0.013-0.431-0.051-0.125-0.060-0.257-0.11-0.393-0.149-0.054-0.015-0.112-0.019-0.168-0.013s-0.111 0.023-0.159 0.049c-0.064 0.038-0.111 0.095-0.133 0.16-0.015 0.047-0.012 0.075-0.016 0.075-0.002-0.006-0.003-0.013-0.004-0.020-0.001-0.020 0.001-0.039 0.005-0.058 0.018-0.071 0.065-0.133 0.132-0.176 0.051-0.030 0.109-0.049 0.169-0.057s0.122-0.004 0.181 0.011c0.139 0.038 0.273 0.087 0.4 0.149 0.124 0.060 0.268 0.078 0.405 0.051 0.058-0.019 0.113-0.043 0.165-0.072 0.048-0.027 0.101-0.045 0.156-0.054 0.048-0.008 0.098-0 0.139 0.022 0.030 0.018 0.053 0.043 0.066 0.073 0.008 0.018 0.011 0.039 0.009 0.058-0 0.008-0.004 0.016-0.009 0.022z"></path>
<path fill="#263238" style="fill: var(--color3, #263238)" d="M12.9 9.616c0.017-0.001 0.034-0.001 0.050 0l0.151-0.003 0.566-0.008 1.97-0.022-0.014 0.024-0.28 0.49c-0.080 0.139-0.159 0.277-0.235 0.41l-0.005 0.010h-0.012l-1.695-0.005v-0.006c-0.153-0.273-0.277-0.495-0.364-0.652l-0.097-0.175-0.025-0.045c-0.003-0.004-0.005-0.009-0.007-0.014l0.010 0.016 0.028 0.047 0.105 0.175c0.089 0.154 0.218 0.37 0.374 0.636l-0.012-0.007 1.686-0.004-0.017 0.009 0.515-0.899 0.017 0.024-2.651 0.005-0.060-0.005z"></path>
<path fill="#000" style="fill: var(--color6, #000)" opacity="0.3" d="M13.453 10.496l0.046 0.086h1.641l0.424-0.911-0.472 0.824h-1.638z"></path>
<path fill="#fafafa" style="fill: var(--color4, #fafafa)" d="M14.508 11.041c0 0-0.004-0.016-0.014-0.044-0.014-0.038-0.041-0.070-0.077-0.093-0.026-0.017-0.057-0.027-0.089-0.031s-0.065-0.001-0.095 0.009c-0.026 0.009-0.049 0.022-0.069 0.039s-0.035 0.038-0.044 0.061c-0.010 0.023-0.014 0.047-0.012 0.072s0.010 0.048 0.023 0.069c0.013 0.021 0.032 0.040 0.054 0.055s0.048 0.025 0.075 0.030c0.027 0.005 0.055 0.005 0.082 0s0.053-0.015 0.075-0.030c0.037-0.023 0.064-0.056 0.077-0.093 0.009-0.027 0.010-0.043 0.014-0.043 0.005 0.015 0.005 0.031 0 0.047-0.009 0.043-0.034 0.082-0.073 0.109-0.029 0.021-0.064 0.034-0.102 0.040s-0.075 0.003-0.111-0.009c-0.044-0.014-0.082-0.039-0.109-0.073s-0.041-0.074-0.041-0.115c0-0.041 0.014-0.081 0.041-0.115s0.065-0.059 0.109-0.073c0.036-0.011 0.074-0.014 0.111-0.009s0.072 0.020 0.101 0.041c0.038 0.027 0.064 0.066 0.073 0.109 0.005 0.015 0.005 0.031 0 0.047z"></path>
<path fill="#263238" style="fill: var(--color3, #263238)" d="M13.459 8.877c0.010-0.004 0.020-0.009 0.027-0.017s0.013-0.016 0.017-0.025c0.008-0.021 0.008-0.043 0-0.064-0.016-0.028-0.037-0.054-0.061-0.077-0.052-0.056-0.076-0.128-0.069-0.199s0.047-0.138 0.11-0.185c0.043-0.035 0.092-0.070 0.098-0.117-0.001-0.025-0.008-0.049-0.021-0.071s-0.030-0.041-0.052-0.057c-0.042-0.036-0.078-0.077-0.105-0.122-0.022-0.040-0.034-0.083-0.036-0.127s0.007-0.088 0.025-0.129c0.025-0.055 0.068-0.102 0.124-0.135 0.019-0.014 0.041-0.023 0.065-0.027 0 0-0.021 0.012-0.056 0.038-0.048 0.035-0.085 0.081-0.108 0.133-0.015 0.038-0.022 0.079-0.019 0.119s0.015 0.080 0.036 0.116c0.028 0.042 0.062 0.080 0.102 0.114 0.021 0.020 0.040 0.041 0.057 0.064 0.018 0.026 0.027 0.057 0.023 0.088-0.005 0.030-0.021 0.059-0.044 0.081-0.021 0.020-0.043 0.038-0.067 0.056-0.055 0.042-0.090 0.101-0.099 0.164s0.011 0.128 0.053 0.18c0.025 0.026 0.045 0.054 0.060 0.085 0.011 0.025 0.011 0.053 0 0.077-0.007 0.016-0.021 0.028-0.039 0.035-0.016 0.006-0.022 0.004-0.022 0.004z"></path>
<path fill="#263238" style="fill: var(--color3, #263238)" d="M13.738 8.877c0.010-0.004 0.020-0.009 0.027-0.017s0.014-0.016 0.017-0.025c0.008-0.021 0.008-0.043 0-0.064-0.016-0.028-0.037-0.054-0.061-0.077-0.052-0.056-0.076-0.128-0.069-0.199s0.047-0.138 0.11-0.185c0.043-0.035 0.092-0.070 0.098-0.117-0.001-0.025-0.008-0.049-0.021-0.071s-0.030-0.041-0.052-0.057c-0.042-0.036-0.078-0.077-0.105-0.122-0.022-0.040-0.035-0.083-0.036-0.127s0.007-0.088 0.025-0.129c0.026-0.055 0.069-0.101 0.124-0.135 0.019-0.014 0.041-0.024 0.066-0.027 0 0-0.022 0.012-0.057 0.038-0.048 0.035-0.085 0.081-0.107 0.133-0.016 0.038-0.022 0.079-0.019 0.119s0.015 0.080 0.036 0.116c0.027 0.042 0.061 0.081 0.101 0.114 0.021 0.020 0.041 0.041 0.057 0.064 0.018 0.026 0.027 0.057 0.023 0.088-0.005 0.030-0.020 0.059-0.044 0.081-0.022 0.021-0.045 0.038-0.066 0.056-0.042 0.030-0.073 0.070-0.089 0.116-0.014 0.038-0.017 0.079-0.010 0.119s0.026 0.077 0.053 0.109c0.024 0.026 0.044 0.054 0.059 0.085 0.011 0.025 0.011 0.053 0 0.077-0.007 0.016-0.022 0.028-0.039 0.035-0.015 0.006-0.022 0.004-0.022 0.004z"></path>
<path fill="#fafafa" style="fill: var(--color4, #fafafa)" d="M5.387 27.958l-0.506 2.897h0.578l0.977-2.897h-1.049z"></path>
<path fill="#fafafa" style="fill: var(--color4, #fafafa)" d="M17.957 27.958l0.506 2.897h-0.579l-0.976-2.897h1.049z"></path>
<path fill="#535455" style="fill: var(--color8, #535455)" d="M2.755 20.275c-0.041 1.307-0.426 7.072 0.917 8.17h1.669c0.436 0 0.412-0.181 0.395-0.563l-0.317-7.48c-0.005-0.144-0.063-0.282-0.165-0.395-0.218-0.238-0.66-0.606-1.264-0.57-0.326 0.014-0.642 0.106-0.913 0.266-0.101 0.066-0.183 0.153-0.239 0.253s-0.084 0.209-0.083 0.32z"></path>
<path fill="#535455" style="fill: var(--color8, #535455)" d="M17.881 28.528l-12.54-0.084v-3.408h12.54v3.492z"></path>
<path fill="#535455" style="fill: var(--color8, #535455)" d="M17.832 25.036l-12.562 0.091v-2.044l12.612-0.208-0.049 2.161z"></path>
<path fill="#535455" style="fill: var(--color8, #535455)" d="M2.992 19.891c0 0 0.093-2.838 3.643-2.984s8.818 0 8.818 0 4.46-0.147 4.563 2.324l-0.886 4.736h-13.77l-2.369-4.076z"></path>
<path fill="#535455" style="fill: var(--color8, #535455)" d="M20.544 20.576c-0.094 1.956-0.299 7.693-1.846 7.952h-1.15l0.356-8.38c0 0 0.533-0.818 1.422-0.768h0.027c0.336 0.024 0.649 0.163 0.871 0.386s0.337 0.514 0.321 0.81z"></path>
<path fill="#202324" style="fill: var(--color9, #202324)" d="M19.911 19.501l-0.042-0.009-0.12-0.029-0.087-0.021-0.109-0.015c-0.039-0.004-0.081-0.012-0.127-0.016h-0.145c-0.248 0.002-0.493 0.056-0.713 0.157l-0.049 0.021-0.047 0.026-0.096 0.053c-0.064 0.040-0.126 0.082-0.185 0.128-0.128 0.1-0.241 0.215-0.335 0.341v-0.006c-0.047 0.866-0.105 1.96-0.168 3.146-0.073 1.444-0.126 2.752-0.156 3.7-0.014 0.473-0.024 0.856-0.032 1.122 0 0.131-0.007 0.234-0.008 0.305 0 0.034 0 0.060-0.004 0.079s0 0.027 0 0.027 0-0.009 0-0.027c0-0.018 0-0.046 0-0.079 0-0.072 0-0.174 0-0.305 0-0.265 0.009-0.648 0.020-1.122 0.024-0.948 0.073-2.257 0.145-3.701 0.060-1.187 0.124-2.282 0.175-3.146-0.001-0.002-0.001-0.003 0-0.005 0.096-0.128 0.21-0.244 0.341-0.344 0.060-0.047 0.123-0.091 0.188-0.131l0.098-0.054 0.048-0.026 0.049-0.021c0.224-0.101 0.472-0.154 0.723-0.154l0.145 0.005c0.045 0.004 0.087 0.012 0.127 0.017l0.109 0.016 0.087 0.023 0.119 0.033 0.046 0.012z"></path>
<path fill="#202324" style="fill: var(--color9, #202324)" d="M5.361 25.118h0.952l2.598 0.006c2.194 0.007 5.224 0.028 8.569-0.014h0.139l-0.018 0.015c0.012-0.349 0.024-0.695 0.036-1.035 0.006-0.171 0.012-0.34 0.017-0.507l0.009-0.25c0-0.041 0.004-0.084 0-0.123-0.002-0.039-0.015-0.078-0.036-0.113s-0.053-0.065-0.090-0.089c-0.037-0.024-0.078-0.040-0.123-0.049-0.046-0.007-0.093-0.010-0.14-0.007h-0.714l-1.101 0.006-3.809 0.035c-1.083 0.010-1.959 0.013-2.564 0.014h-0.877c-0.041 0-0.062 0-0.062 0h0.243l0.696-0.005 2.564-0.024 3.808-0.042 1.102-0.007h0.714c0.049-0.003 0.098 0 0.145 0.008 0.049 0.009 0.096 0.028 0.136 0.054s0.074 0.060 0.099 0.099c0.024 0.038 0.038 0.081 0.041 0.124 0 0.044 0 0.084 0 0.128 0 0.083-0.005 0.166-0.008 0.25-0.006 0.167-0.012 0.336-0.017 0.506-0.012 0.341-0.023 0.686-0.035 1.036-0.001 0.004-0.003 0.007-0.006 0.010s-0.008 0.004-0.012 0.005h-0.138c-3.347 0.042-6.377 0.018-8.57 0.005l-3.488-0.019-0.060-0.018z"></path>
<path fill="#000" style="fill: var(--color6, #000)" opacity="0.2" d="M5.269 25.127c2.878 0.549 4.249 0.508 6.925 0.548 2.401 0.037 5.044-0.344 5.426-0.571l-12.35 0.023z"></path>
<path fill="#202324" style="fill: var(--color9, #202324)" d="M5.341 28.444c-0.001-0.009-0.001-0.019 0-0.028 0-0.020 0-0.048 0-0.083 0-0.074 0-0.182 0-0.32 0-0.279 0.007-0.679 0.012-1.173 0.014-0.992 0.032-2.36 0.052-3.87 0.012-0.756 0.023-1.476 0.033-2.131 0.005-0.158-0.019-0.317-0.073-0.468-0.053-0.142-0.131-0.275-0.231-0.395-0.097-0.11-0.212-0.207-0.34-0.288-0.12-0.072-0.251-0.129-0.388-0.168-0.241-0.065-0.498-0.074-0.744-0.026-0.186 0.035-0.363 0.102-0.519 0.198-0.098 0.062-0.184 0.136-0.257 0.221-0.049 0.058-0.069 0.093-0.073 0.091 0.004-0.009 0.009-0.017 0.015-0.025 0.015-0.024 0.032-0.048 0.051-0.070 0.070-0.088 0.156-0.165 0.254-0.228 0.157-0.099 0.335-0.169 0.524-0.205 0.25-0.051 0.511-0.044 0.757 0.022 0.142 0.040 0.277 0.097 0.4 0.17 0.132 0.082 0.249 0.181 0.349 0.293 0.217 0.252 0.327 0.563 0.31 0.879-0.009 0.655-0.020 1.375-0.031 2.131-0.025 1.51-0.047 2.88-0.063 3.869-0.010 0.494-0.018 0.896-0.024 1.173 0 0.138-0.006 0.244-0.008 0.32 0 0.036 0 0.064 0 0.083-0.001 0.009-0.002 0.018-0.004 0.028z"></path>
<path fill="#8baa36" style="fill: var(--color7, #8baa36)" d="M12.396 22.445c0.027-1.343 0.175-2.681 0.444-4.003 0.041-0.202 0.095-0.419 0.272-0.55 0.153-0.114 0.364-0.139 0.563-0.153 1.43-0.102 2.887 0.459 4.185 1.067 0.142 0.066 0.257 0.171 0.328 0.298s0.094 0.271 0.067 0.411c-0.218 1.094-0.655 1.92-1.297 2.965-1.459 0.52-3.061 0.645-4.602 0.358z"></path>
<path fill="#202324" style="fill: var(--color9, #202324)" d="M9.835 12.556c-0.090-0.564-0.084-0.545-0.164-1.085-0.154-1.047-0.53-2.234-2.228-2.149 0 0-1.28 0.064-1.673 0.868-0.21 0.434-0.265 1.935-0.335 3.286-0.001 0.022-0.006 0.043-0.015 0.064l-0.079 0.204c-0.105 0.268-0.166 0.549-0.183 0.832l-0.108 1.875c-0.004 0.062 0.021 0.122 0.068 0.168s0.113 0.074 0.183 0.077c0.573 0.024 1.881-0.040 2.132-0.12 0.516-0.166 0.986-0.429 1.377-0.769s0.695-0.75 0.89-1.202c0.026-0.064 0.396-0.092 0.466-0.115 0.115-0.039-0.314-1.827-0.331-1.934z"></path>
<path fill="#ffbf9d" style="fill: var(--color10, #ffbf9d)" d="M7.114 9.806l0.108-0.088 1.144 0.421c0.080 0.005 0.155 0.036 0.21 0.087s0.087 0.119 0.088 0.189l-0.063 3.289c0 0.223 0.073 0.481-0.086 0.657l-0.186 0.23c-0.374 0.422-1.237 0.269-1.52-0.204-0.017-0.027-0.031-0.056-0.039-0.086-0.007-0.024-0.012-0.049-0.016-0.074-0.030-0.265-0.028-0.495-0.028-0.495-0.016-0.291-0.020-0.41-0.021-0.407s-0.701-0.079-0.879-0.878c-0.088-0.396-0.062-0.939-0.027-1.472 0.049-0.737 0.639-1.179 1.315-1.171z"></path>
<path fill="#202324" style="fill: var(--color9, #202324)" d="M7.294 11.512c0.001 0.027 0.013 0.052 0.035 0.071s0.051 0.029 0.082 0.029c0.015 0.001 0.030-0.001 0.044-0.006s0.027-0.011 0.038-0.020c0.011-0.009 0.020-0.020 0.026-0.032s0.009-0.025 0.010-0.038c-0.001-0.027-0.013-0.052-0.035-0.071s-0.051-0.029-0.082-0.029c-0.015-0-0.030 0.002-0.044 0.006s-0.027 0.012-0.038 0.021c-0.011 0.009-0.019 0.020-0.026 0.032s-0.009 0.025-0.010 0.038z"></path>
<path fill="#202324" style="fill: var(--color9, #202324)" d="M6.121 11.52c0.001 0.027 0.013 0.052 0.035 0.071s0.051 0.029 0.082 0.029c0.015 0.001 0.030-0.001 0.044-0.006s0.027-0.011 0.038-0.020c0.011-0.009 0.020-0.020 0.026-0.032s0.009-0.025 0.010-0.038c-0.001-0.027-0.013-0.052-0.035-0.071s-0.051-0.029-0.082-0.029c-0.015-0.001-0.030 0.002-0.044 0.006s-0.027 0.012-0.038 0.021c-0.011 0.009-0.020 0.020-0.026 0.032s-0.009 0.025-0.010 0.038z"></path>
<path fill="#202324" style="fill: var(--color9, #202324)" d="M5.917 11.188c0.015 0.013 0.101-0.047 0.226-0.051s0.218 0.049 0.233 0.035c0.015-0.014-0.009-0.030-0.050-0.054-0.056-0.031-0.121-0.047-0.187-0.044-0.065 0.002-0.128 0.022-0.18 0.057-0.038 0.028-0.050 0.052-0.042 0.058z"></path>
<path fill="#202324" style="fill: var(--color9, #202324)" d="M7.19 11.216c0.017 0.011 0.095-0.056 0.218-0.072s0.224 0.029 0.236 0.013c0.012-0.015-0.012-0.029-0.057-0.049-0.059-0.026-0.126-0.036-0.191-0.028s-0.125 0.034-0.172 0.074c-0.033 0.031-0.042 0.056-0.034 0.061z"></path>
<path fill="#202324" style="fill: var(--color9, #202324)" d="M6.739 12.014c-0.067-0.016-0.136-0.024-0.205-0.026-0.033 0-0.063-0.006-0.073-0.026-0.004-0.029 0.002-0.059 0.018-0.084 0.027-0.069 0.055-0.142 0.086-0.218 0.119-0.31 0.204-0.565 0.19-0.569s-0.122 0.244-0.242 0.554l-0.082 0.219c-0.019 0.035-0.023 0.074-0.012 0.111 0.005 0.010 0.012 0.018 0.022 0.025s0.020 0.012 0.032 0.014c0.018 0.004 0.037 0.006 0.055 0.005 0.070 0.006 0.141 0.004 0.21-0.006z"></path>
<path fill="#ff9a6c" style="fill: var(--color11, #ff9a6c)" d="M6.706 13.325c0.429-0.008 0.847-0.121 1.208-0.325 0 0-0.284 0.564-1.198 0.518l-0.009-0.193z"></path>
<path fill="#ff9a6c" style="fill: var(--color11, #ff9a6c)" d="M6.803 12.279c0.023-0.027 0.053-0.049 0.088-0.063s0.074-0.020 0.112-0.017c0.028 0.001 0.055 0.008 0.080 0.019s0.047 0.026 0.065 0.045c0.017 0.018 0.028 0.040 0.031 0.064s-0.003 0.047-0.016 0.068c-0.020 0.020-0.046 0.035-0.075 0.043s-0.060 0.007-0.089-0.001c-0.059-0.017-0.114-0.045-0.162-0.081-0.015-0.008-0.027-0.019-0.037-0.031-0.005-0.006-0.007-0.013-0.007-0.020s0.002-0.014 0.007-0.021z"></path>
<path fill="#202324" style="fill: var(--color9, #202324)" d="M7.112 12.079c-0.020 0-0.015 0.12-0.129 0.209s-0.259 0.080-0.259 0.097c0 0.007 0.033 0.022 0.095 0.022 0.080-0.002 0.158-0.028 0.218-0.074 0.057-0.044 0.092-0.106 0.098-0.172 0.004-0.053-0.013-0.082-0.023-0.081z"></path>
<path fill="#202324" style="fill: var(--color9, #202324)" d="M7.076 10.679c0.017 0.028 0.139 0 0.287-0.003s0.272 0.018 0.291-0.011c0.006-0.014-0.018-0.040-0.073-0.064-0.068-0.028-0.143-0.041-0.218-0.039s-0.151 0.019-0.218 0.050c-0.053 0.027-0.076 0.054-0.069 0.067z"></path>
<path fill="#202324" style="fill: var(--color9, #202324)" d="M5.942 10.715c0.023 0.024 0.108-0.004 0.212-0.009s0.193 0.010 0.212-0.017c0.009-0.013-0.007-0.038-0.046-0.060-0.053-0.027-0.114-0.039-0.175-0.035s-0.119 0.023-0.167 0.056c-0.036 0.027-0.047 0.053-0.036 0.065z"></path>
<path fill="#202324" style="fill: var(--color9, #202324)" d="M8.616 11.819c0 0-0.645 0.168-0.987-1.233-0.116-0.479-0.613-0.871-0.613-0.871l0.204-0.052c0 0 1.263 0.33 1.284 0.344s0.311 0.58 0.311 0.58l-0.199 1.231z"></path>
<path fill="#ffbf9d" style="fill: var(--color10, #ffbf9d)" d="M8.459 11.765c0-0.060 0.073-0.202 0.137-0.214 0.178-0.030 0.501-0.028 0.52 0.371 0.026 0.546-0.602 0.457-0.604 0.441s-0.045-0.392-0.053-0.598z"></path>
<path fill="#ff9a6c" style="fill: var(--color11, #ff9a6c)" d="M8.691 12.15c0 0 0.012 0.006 0.030 0.013 0.026 0.009 0.055 0.009 0.081 0 0.065-0.024 0.116-0.117 0.114-0.216-0.001-0.047-0.013-0.093-0.036-0.135-0.007-0.017-0.018-0.032-0.033-0.044s-0.033-0.021-0.052-0.026c-0.012-0.002-0.026-0.001-0.037 0.004s-0.020 0.014-0.025 0.024c-0.007 0.016 0 0.026-0.007 0.027s-0.013-0.009-0.009-0.031c0.003-0.014 0.011-0.026 0.023-0.035 0.017-0.012 0.038-0.017 0.059-0.016 0.026 0.004 0.050 0.013 0.070 0.027s0.037 0.032 0.047 0.053c0.029 0.046 0.044 0.098 0.045 0.151 0 0.11-0.057 0.216-0.146 0.241-0.016 0.005-0.034 0.007-0.051 0.005s-0.034-0.007-0.048-0.015c-0.020-0.014-0.024-0.026-0.023-0.028z"></path>
<path fill="#202324" style="fill: var(--color9, #202324)" d="M8.185 11.547c-0.031-0.004-0.062-0.010-0.092-0.017-0.082-0.023-0.157-0.063-0.218-0.116-0.043-0.036-0.081-0.076-0.114-0.12-0.036-0.051-0.067-0.105-0.091-0.161-0.052-0.13-0.094-0.263-0.127-0.398-0.042-0.143-0.087-0.278-0.137-0.398-0.043-0.107-0.095-0.21-0.156-0.31-0.041-0.067-0.087-0.131-0.139-0.192-0.018-0.022-0.034-0.038-0.044-0.049-0.005-0.006-0.010-0.011-0.016-0.016 0.004 0.006 0.009 0.012 0.014 0.018 0.009 0.011 0.024 0.028 0.041 0.051 0.049 0.062 0.094 0.126 0.134 0.192 0.059 0.1 0.11 0.203 0.153 0.31 0.049 0.12 0.093 0.256 0.135 0.397 0.033 0.136 0.076 0.269 0.129 0.4 0.025 0.057 0.057 0.111 0.094 0.162 0.034 0.044 0.073 0.085 0.117 0.121 0.063 0.053 0.141 0.092 0.225 0.113 0.030 0.008 0.062 0.013 0.094 0.013z"></path>
<path fill="#8baa36" style="fill: var(--color7, #8baa36)" d="M10.051 14.485l-1.382-0.459-1.964-0.376-1.582 0.184c-0.334 0.006-0.912 0.623-1.352 1.285-0.394 0.593-0.705 1.189-0.705 1.189l1.841 0.605c0.105 0.689 0.259 1.6 0.392 1.959 0.227 0.614 0.296 1.456 0.296 1.456l4.373-0.502 0.062-2.643 1.438-0.165c0.001-0.093-0.554-2.298-1.416-2.534z"></path>
<path fill="#202324" style="fill: var(--color9, #202324)" d="M9.94 15.544c0 0.022 0.003 0.043 0.008 0.064 0.007 0.042 0.017 0.104 0.028 0.179 0.028 0.198 0.042 0.397 0.042 0.597-0.001 0.199-0.016 0.398-0.044 0.596-0.011 0.076-0.021 0.138-0.028 0.18-0.005 0.021-0.008 0.042-0.009 0.064 0.010-0.021 0.016-0.042 0.020-0.064 0.012-0.042 0.025-0.103 0.039-0.179 0.071-0.397 0.071-0.801 0-1.197-0.014-0.076-0.027-0.137-0.038-0.179-0.004-0.021-0.010-0.041-0.019-0.060z"></path>
<path fill="#ffbf9d" style="fill: var(--color10, #ffbf9d)" d="M11.412 17.056l-1.421 0.135 0.023 0.343-0.316-0.398-0.477 0.87c0 0 0.192 0.508 0.296 0.788 0.277 0.752 0.72 1.591 1.237 1.536 0.622-0.064 1.062-0.721 1.042-1.141-0.017-0.38-0.384-2.133-0.384-2.133z"></path>
<path fill="#ffbf9d" style="fill: var(--color10, #ffbf9d)" d="M12.078 22.041l2.464 0.85-0.937 0.997-2.096-0.321 0.569-1.526z"></path>
<path fill="#202324" style="fill: var(--color9, #202324)" d="M5.602 20.283c0 0-0.065 2.472 0.193 2.902s2.749 0.448 2.749 0.448l3.929 0.175 0.458-1.617c0 0-2.858-1.167-3.128-1.302s-0.909-0.371-0.909-0.371l-0.962-1.088-2.33 0.852z"></path>
<path fill="#535455" style="fill: var(--color8, #535455)" d="M10.14 23.66c-0.010-0.004-0.021-0.007-0.031-0.010l-0.090-0.023-0.336-0.081-1.134-0.264c-0.063-0.001-0.126-0.004-0.189-0.011-0.122-0.011-0.242-0.036-0.356-0.074-0.107-0.033-0.211-0.076-0.309-0.128-0.279-0.147-0.506-0.36-0.655-0.614-0.021-0.036-0.034-0.064-0.045-0.084-0.004-0.010-0.010-0.020-0.017-0.029 0.003 0.011 0.007 0.021 0.012 0.031 0.009 0.020 0.020 0.051 0.040 0.088 0.056 0.105 0.127 0.204 0.21 0.294 0.125 0.133 0.275 0.247 0.442 0.337 0.099 0.053 0.204 0.097 0.314 0.131 0.058 0.019 0.116 0.034 0.176 0.047 0.061 0.012 0.124 0.022 0.186 0.028 0.064 0.007 0.129 0.010 0.194 0.011l1.133 0.256 0.338 0.073 0.092 0.019c0.009 0.002 0.018 0.004 0.027 0.004z"></path>
<path fill="#202324" style="fill: var(--color9, #202324)" d="M10.023 21.035l0.669-3.599c0 0-0.089-2.591 1.565-2.405s1.455 2.465 1.455 2.465-0.214 3.125-0.331 3.576c-0.117 0.451-0.176 0.953-0.514 1.133l-1.501-0.205-1.344-0.965z"></path>
<path fill="#202324" style="fill: var(--color9, #202324)" d="M11.313 15.686l-0.4 0.851 0.248 3.249c0 0 2.132 0.161 2.11 0.109s0.382-1.618 0.382-1.618 0.132-2.079-0.499-2.476c-0.632-0.397-1.841-0.115-1.841-0.115z"></path>
<path fill="#ffbf9d" style="fill: var(--color10, #ffbf9d)" d="M11.247 19.791l0.028 1.551 1.489 0.719 0.405-2.157-1.921-0.113z"></path>
<path fill="#202324" style="fill: var(--color9, #202324)" d="M7.929 19.43l1.626-0.589 0.973 0.767-0.54 1.529-1.427-0.468-0.632-1.238z"></path>
<path fill="#535455" style="fill: var(--color8, #535455)" d="M12.836 22.191l-0.020-0.010-0.060-0.026-0.23-0.099-0.848-0.36-1.259-0.527-1.441-0.598c-0.034-0.015-0.069-0.028-0.105-0.039-0.142-0.046-0.291-0.072-0.442-0.079-0.146-0.008-0.293 0-0.436 0.024-0.272 0.045-0.532 0.136-0.767 0.266-0.212 0.118-0.402 0.263-0.564 0.431-0.14 0.146-0.264 0.304-0.37 0.47-0.152 0.241-0.276 0.495-0.373 0.757-0.035 0.093-0.059 0.166-0.073 0.216l-0.017 0.056c-0.002 0.006-0.004 0.013-0.004 0.019 0 0 0-0.006 0.008-0.019l0.020-0.056c0.017-0.049 0.044-0.121 0.080-0.213 0.1-0.261 0.227-0.513 0.38-0.754 0.107-0.165 0.231-0.32 0.371-0.465 0.161-0.166 0.35-0.309 0.559-0.424 0.231-0.128 0.488-0.216 0.757-0.26 0.142-0.023 0.286-0.031 0.43-0.023 0.149 0.006 0.296 0.032 0.437 0.077 0.036 0.010 0.070 0.023 0.103 0.038l3.555 1.47 0.232 0.093 0.061 0.024c0.005 0.004 0.010 0.007 0.016 0.010z"></path>
<path fill="#535455" style="fill: var(--color8, #535455)" d="M9.739 20.928c-0.001-0.079 0.005-0.158 0.018-0.236 0.046-0.186 0.125-0.364 0.234-0.529 0.11-0.166 0.204-0.339 0.279-0.519 0.021-0.056 0.036-0.112 0.047-0.17 0.005-0.021 0.007-0.043 0.005-0.064-0.006 0-0.016 0.090-0.073 0.228-0.082 0.176-0.178 0.347-0.287 0.512-0.11 0.167-0.186 0.349-0.227 0.538-0.010 0.058-0.013 0.117-0.008 0.175 0.001 0.022 0.005 0.043 0.012 0.064z"></path>
<path fill="#535455" style="fill: var(--color8, #535455)" d="M13.657 18.276l-0.006 0.017c0 0.013-0.008 0.029-0.015 0.050-0.012 0.046-0.029 0.11-0.052 0.192-0.044 0.167-0.107 0.409-0.181 0.709-0.037 0.15-0.077 0.314-0.116 0.491-0.009 0.045-0.020 0.089-0.026 0.136-0 0.007-0 0.014 0 0.020v0.006c0 0.003 0 0 0-0.006v-0.004c0 0 0 0-0.004 0-0.012 0.002-0.025 0.003-0.038 0.003h-0.081c-0.108 0-0.218-0.007-0.335-0.013-0.46-0.024-0.964-0.060-1.494-0.098l-0.146-0.011 0.014 0.013c-0.073-0.903-0.134-1.714-0.18-2.304-0.024-0.292-0.044-0.528-0.057-0.693-0.007-0.080-0.013-0.143-0.018-0.188 0-0.020-0.004-0.036-0.005-0.049 0.001-0.006 0.001-0.011 0-0.017-0.001 0.005-0.001 0.011 0 0.017 0 0.012 0 0.029 0 0.049 0 0.045 0.007 0.108 0.012 0.188 0.012 0.165 0.028 0.401 0.048 0.694 0.044 0.588 0.104 1.399 0.171 2.304v0.012h0.014l0.146 0.011c0.53 0.039 1.035 0.073 1.495 0.096 0.115 0.005 0.227 0.010 0.337 0.012h0.082c0.014-0 0.028-0.002 0.042-0.004 0.005-0.001 0.010-0.003 0.015-0.005 0.003-0.002 0.005-0.004 0.006-0.007s0.001-0.005 0-0.007c-0.009 0 0-0.003 0 0-0-0.005-0-0.010 0-0.015 0.006-0.045 0.016-0.090 0.025-0.134 0.038-0.177 0.076-0.341 0.112-0.491 0.073-0.298 0.131-0.54 0.172-0.71l0.046-0.192c0.004-0.021 0.009-0.038 0.011-0.051 0.004-0.007 0.006-0.014 0.007-0.022z"></path>
<path fill="#535455" style="fill: var(--color8, #535455)" d="M11.694 15.441c-0.017 0.010-0.033 0.022-0.047 0.036-0.030 0.024-0.073 0.064-0.118 0.109-0.246 0.252-0.423 0.551-0.517 0.873-0.018 0.064-0.029 0.112-0.035 0.147-0.005 0.018-0.007 0.037-0.006 0.055 0.005 0 0.023-0.076 0.062-0.197 0.104-0.316 0.278-0.61 0.513-0.866 0.089-0.098 0.152-0.154 0.148-0.157z"></path>
<path fill="#535455" style="fill: var(--color8, #535455)" d="M9.26 20.515c-0.001-0.018-0.004-0.035-0.010-0.052-0.009-0.033-0.023-0.080-0.044-0.138-0.054-0.15-0.122-0.297-0.204-0.437s-0.176-0.274-0.283-0.401c-0.041-0.048-0.073-0.086-0.101-0.111-0.012-0.014-0.026-0.027-0.041-0.038 0 0 0.047 0.064 0.124 0.161 0.1 0.129 0.191 0.264 0.273 0.403s0.151 0.283 0.21 0.431c0.047 0.113 0.071 0.184 0.076 0.183z"></path>
<path fill="#535455" style="fill: var(--color8, #535455)" d="M6.585 20.328c-0.005 0-0.026 0.054-0.073 0.14-0.059 0.112-0.133 0.217-0.218 0.315s-0.183 0.186-0.291 0.264c-0.083 0.059-0.139 0.092-0.136 0.096s0.016-0.005 0.043-0.018c0.037-0.020 0.073-0.041 0.107-0.064 0.115-0.074 0.219-0.162 0.307-0.261 0.086-0.099 0.157-0.209 0.211-0.324 0.016-0.035 0.030-0.071 0.041-0.107 0.005-0.013 0.008-0.027 0.009-0.041z"></path>
<path fill="#fafafa" style="fill: var(--color4, #fafafa)" d="M14.505 23.911c0.918-0.041 1.149-0.015 2.068-0.056 0.224-0.010 1.040 0.015 1.227-0.094 0.171-0.099 0.39-0.192 0.436-0.367 0.073-0.296-0.018-0.63-0.327-0.815-0.108-0.064-0.234-0.101-0.364-0.109-0.542-0.038-1.037 0.31-1.579 0.207-0.146-0.028-0.278-0.099-0.423-0.128-0.217-0.038-0.442-0.006-0.635 0.090-0.194 0.088-0.239 0.103-0.239 0.103l-0.965-0.287-0.3 1.482 1.103-0.025z"></path>
<path fill="#fafafa" style="fill: var(--color4, #fafafa)" d="M13.688 22.102l0.509 0.146c0.037 0.011 0.069 0.034 0.088 0.064s0.026 0.065 0.018 0.099l-0.395 1.59c-0.008 0.034-0.030 0.064-0.062 0.084s-0.072 0.029-0.111 0.025l-0.515-0.051c-0.022-0.002-0.043-0.008-0.063-0.018s-0.036-0.023-0.049-0.039c-0.013-0.016-0.022-0.034-0.027-0.053s-0.005-0.039 0-0.058l0.401-1.683c0.004-0.019 0.013-0.038 0.026-0.054s0.030-0.030 0.049-0.040c0.019-0.010 0.041-0.016 0.063-0.019s0.045-0 0.066 0.006z"></path>
<path fill="#202324" style="fill: var(--color9, #202324)" d="M13.896 24.064c0.038-0.077 0.070-0.157 0.094-0.239 0.052-0.149 0.116-0.357 0.175-0.589s0.097-0.448 0.118-0.6c0.010-0.077 0.018-0.141 0.020-0.184 0.004-0.023 0.004-0.045 0-0.068-0.023 0.082-0.040 0.165-0.051 0.248-0.029 0.153-0.073 0.365-0.13 0.596s-0.119 0.44-0.162 0.591c-0.028 0.081-0.049 0.163-0.064 0.246z"></path>
<path fill="#202324" style="fill: var(--color9, #202324)" d="M14.215 22.613c-0.11-0.079-0.242-0.131-0.383-0.151s-0.284-0.006-0.417 0.039c0 0.012 0.186-0.035 0.411 0s0.383 0.122 0.389 0.112z"></path>
<path fill="#202324" style="fill: var(--color9, #202324)" d="M14.155 23.213c-0.136-0.055-0.279-0.094-0.426-0.118-0.144-0.036-0.293-0.056-0.442-0.059 0.141 0.041 0.286 0.073 0.432 0.097 0.239 0.049 0.433 0.092 0.437 0.081z"></path>
<path fill="#202324" style="fill: var(--color9, #202324)" d="M13.923 23.836c0-0.012-0.197 0.009-0.415-0.073s-0.341-0.216-0.351-0.207c-0.009 0.008 0.020 0.041 0.073 0.092 0.074 0.065 0.162 0.116 0.258 0.152s0.2 0.054 0.305 0.054c0.044 0.004 0.089-0.002 0.13-0.017z"></path>
<path fill="#fafafa" style="fill: var(--color4, #fafafa)" d="M11.208 20.846l0.039 0.671 1.522 0.643 0.253-1.12-1.814-0.193z"></path>
<path fill="#fafafa" style="fill: var(--color4, #fafafa)" d="M13.274 20.646l-0.114 0.467c-0.008 0.035-0.031 0.065-0.064 0.086s-0.073 0.030-0.113 0.026l-1.874-0.181c-0.040-0.004-0.077-0.020-0.104-0.047s-0.042-0.061-0.041-0.096v-0.465c0-0.020 0.005-0.039 0.015-0.058s0.023-0.034 0.040-0.047c0.017-0.013 0.037-0.023 0.058-0.029s0.044-0.008 0.067-0.006l1.985 0.179c0.023 0.002 0.045 0.007 0.066 0.017s0.038 0.023 0.052 0.040c0.014 0.016 0.024 0.035 0.028 0.055s0.005 0.040 0 0.060z"></path>
<path fill="#202324" style="fill: var(--color9, #202324)" d="M11.037 21.040c0.093 0.027 0.188 0.047 0.284 0.059 0.178 0.029 0.423 0.064 0.698 0.093s0.523 0.038 0.704 0.041c0.090 0 0.163 0 0.214 0 0.026 0.001 0.052-0.001 0.078-0.007-0.096-0.012-0.194-0.018-0.291-0.019-0.18-0.010-0.428-0.026-0.701-0.052s-0.519-0.059-0.697-0.082c-0.096-0.016-0.192-0.027-0.29-0.033z"></path>
<path fill="#202324" style="fill: var(--color9, #202324)" d="M12.741 21.17c0.086-0.104 0.133-0.229 0.133-0.358 0.015-0.215-0.081-0.374-0.089-0.369s0.060 0.162 0.045 0.366c-0.015 0.204-0.098 0.355-0.089 0.36z"></path>
<path fill="#202324" style="fill: var(--color9, #202324)" d="M12.043 21.18c0.049-0.127 0.079-0.259 0.091-0.393 0.032-0.22 0.034-0.4 0.022-0.401s-0.034 0.177-0.066 0.395c-0.031 0.218-0.060 0.396-0.047 0.398z"></path>
<path fill="#202324" style="fill: var(--color9, #202324)" d="M11.301 21.040c0.014 0-0.031-0.175 0.040-0.378s0.212-0.327 0.202-0.335c-0.011-0.008-0.044 0.022-0.097 0.077-0.134 0.147-0.198 0.335-0.178 0.523 0.001 0.039 0.012 0.077 0.033 0.112z"></path>
<path fill="#ffbf9d" style="fill: var(--color10, #ffbf9d)" d="M7.82 15.922c0 0 0.778 0.097 0.827 0.139s1.051 1.075 1.051 1.075l-0.476 0.87-0.882-0.4c-0.090-0.033-0.184-0.058-0.279-0.074 0 0-0.883-0.106-0.946-0.198s-0.028-0.115 0.037-0.128c0.065-0.013 0.593 0.027 0.711 0.044 0.117 0.008 0.234 0.006 0.351-0.006 0 0-0.367-0.069-0.451-0.092s-0.906-0.17-0.896-0.3c0.010-0.13 0.111-0.178 0.626-0.064 0.286 0.065 0.579 0.1 0.874 0.103l-1.141-0.327c0 0-0.46-0.12-0.316-0.238s1.128 0.101 1.128 0.101l0.437 0.136-0.128-0.227c0 0-0.618-0.149-0.698-0.202-0.099-0.064-0.114-0.128-0.042-0.184s0.215-0.029 0.215-0.029z"></path>
<path fill="#202324" style="fill: var(--color9, #202324)" d="M5.165 14.833c-0.001 0.026-0.004 0.052-0.010 0.077-0.010 0.056-0.023 0.125-0.039 0.207-0.033 0.175-0.073 0.417-0.116 0.684s-0.068 0.512-0.087 0.688c-0.009 0.083-0.017 0.152-0.023 0.209-0.001 0.026-0.006 0.052-0.012 0.077-0.004-0.026-0.004-0.052 0-0.077 0-0.050 0.004-0.122 0.010-0.21 0.012-0.177 0.036-0.422 0.073-0.69s0.087-0.512 0.127-0.684c0.020-0.087 0.038-0.157 0.051-0.205 0.005-0.026 0.013-0.051 0.025-0.074z"></path>
<path fill="#202324" style="fill: var(--color9, #202324)" d="M10.307 14.9c0-0.018-0.194-1.069-0.284-1.441l-1.423 0.192c-0.020 0.156-0.026 0.698-0.022 0.88-0.002 0.184 0.067 0.363 0.196 0.508 0.066 0.071 0.153 0.124 0.251 0.154s0.204 0.035 0.306 0.015c0.11 0.141 0.277 0.239 0.466 0.275 0.189 0.026 0.405-0.061 0.466-0.221 0.043-0.117 0.058-0.241 0.044-0.363z"></path>
<path fill="#202324" style="fill: var(--color9, #202324)" d="M8.234 15.044l-0.227 1.916c-0.004 0.031-0.021 0.060-0.048 0.080s-0.062 0.030-0.097 0.028l-1.347-0.095c-0.036-0.002-0.069-0.017-0.093-0.041s-0.035-0.055-0.033-0.087l0.159-2.014c0.001-0.017 0.006-0.033 0.015-0.048s0.021-0.028 0.036-0.038c0.015-0.010 0.032-0.018 0.051-0.022s0.038-0.005 0.056-0.002l1.413 0.192c0.035 0.005 0.067 0.021 0.088 0.046s0.031 0.056 0.027 0.087z"></path>
<path fill="#ffbf9d" style="fill: var(--color10, #ffbf9d)" d="M7.096 15.68c0 0-0.784-0.017-0.842 0.017s-1.235 0.911-1.235 0.911l0.307 0.928c0 0 0.848-0.239 0.946-0.267 0.095-0.020 0.193-0.031 0.291-0.033 0 0 0.891 0.024 0.967-0.059s0.048-0.109-0.013-0.134-0.59-0.058-0.709-0.058c-0.117-0.009-0.232-0.028-0.345-0.057 0 0 0.375-0.015 0.462-0.026s0.925-0.037 0.94-0.166-0.073-0.192-0.606-0.155c-0.291 0.024-0.584 0.017-0.873-0.020l1.18-0.159c0 0 0.476-0.052 0.356-0.192s-1.132-0.064-1.132-0.064l-0.455 0.071 0.168-0.206c0 0 0.638-0.058 0.728-0.098 0.11-0.050 0.137-0.109 0.073-0.175s-0.207-0.058-0.207-0.058z"></path>
<path fill="#ffbf9d" style="fill: var(--color10, #ffbf9d)" d="M3.365 16.406l1.315 0.432-0.025 0.161 0.396-0.415 0.364 0.832c0 0-0.612 1.058-0.744 1.329-0.379 0.786-1.053 1.196-1.536 1.022-0.582-0.209-0.915-0.749-0.65-1.348 0.158-0.356 0.88-2.013 0.88-2.013z"></path>
<path fill="#ff9a6c" style="fill: var(--color11, #ff9a6c)" d="M5.020 16.608c0 0 0.011-0.010 0.032-0.026l0.097-0.074 0.372-0.28 0.59-0.438 0.089-0.064 0.047-0.033c0.019-0.008 0.040-0.013 0.062-0.014 0.081-0.008 0.164-0.009 0.249-0.010 0.171 0 0.351 0 0.54 0 0.048-0.001 0.096 0.005 0.142 0.018 0.024 0.007 0.047 0.018 0.066 0.033s0.034 0.036 0.042 0.058c0.005 0.012 0.007 0.024 0.005 0.036s-0.005 0.024-0.012 0.035c-0.014 0.020-0.033 0.037-0.055 0.051s-0.047 0.025-0.073 0.033c-0.026 0.006-0.050 0.011-0.073 0.016-0.202 0.034-0.414 0.055-0.634 0.076l0.010-0.005-0.168 0.205-0.014-0.020 0.455-0.071c0.191-0.013 0.387-0.021 0.587-0.020 0.1 0 0.202 0.004 0.304 0.014 0.052 0.005 0.103 0.013 0.154 0.025 0.026 0.006 0.050 0.016 0.073 0.029 0.013 0.007 0.023 0.016 0.032 0.027s0.014 0.023 0.016 0.037c0 0.014-0.004 0.027-0.011 0.039s-0.018 0.022-0.030 0.030c-0.022 0.015-0.047 0.026-0.073 0.035-0.050 0.018-0.101 0.032-0.154 0.042-0.105 0.020-0.21 0.029-0.316 0.045l-0.992 0.132v-0.027c0.268 0.033 0.54 0.041 0.81 0.024 0.132-0.011 0.265-0.015 0.397-0.012 0.067 0 0.133 0.011 0.196 0.032 0.034 0.012 0.062 0.035 0.078 0.064 0.014 0.029 0.018 0.060 0.011 0.091-0.005 0.017-0.017 0.031-0.034 0.040-0.014 0.008-0.029 0.016-0.044 0.022-0.030 0.011-0.061 0.020-0.092 0.027-0.061 0.013-0.123 0.024-0.185 0.032-0.123 0.016-0.244 0.026-0.364 0.035l-0.178 0.012c-0.057 0.004-0.117 0.012-0.175 0.014-0.116 0.006-0.229 0.012-0.341 0.016v-0.024c0.122 0.034 0.249 0.053 0.377 0.058 0.127 0.005 0.25 0.013 0.37 0.022 0.060 0.005 0.119 0.010 0.178 0.017 0.029 0.003 0.058 0.006 0.087 0.011 0.015 0.002 0.030 0.006 0.045 0.010 0.014 0.005 0.027 0.012 0.039 0.020 0.007 0.005 0.013 0.010 0.017 0.017s0.007 0.014 0.008 0.021c0.001 0.014-0.002 0.029-0.010 0.041-0.007 0.012-0.014 0.023-0.023 0.033l-0.013 0.015c-0.005 0.006-0.012 0.010-0.019 0.014-0.052 0.019-0.106 0.030-0.162 0.034-0.2 0.016-0.401 0.022-0.602 0.018h-0.136c-0.043-0.003-0.087-0.003-0.13 0-0.080 0.003-0.16 0.014-0.237 0.035l-0.682 0.192-0.226 0.061-0.016 0.004 0.015-0.005 0.046-0.014 0.179-0.052 0.679-0.196c0.166-0.037 0.338-0.050 0.509-0.038 0.2 0.003 0.4-0.004 0.599-0.020 0.053-0.003 0.105-0.014 0.154-0.032 0.005-0.002 0.009-0.005 0.012-0.009l0.012-0.014c0.008-0.009 0.015-0.019 0.020-0.030 0.012-0.021 0.012-0.041-0.009-0.054-0.010-0.007-0.022-0.013-0.034-0.018-0.012-0.003-0.025-0.006-0.039-0.008-0.028-0.005-0.057-0.008-0.085-0.011-0.058-0.006-0.117-0.011-0.177-0.015-0.119-0.009-0.242-0.017-0.368-0.021-0.13-0.004-0.259-0.024-0.383-0.058-0.003-0.001-0.006-0.003-0.008-0.006s-0.003-0.006-0.002-0.009c0.001-0.002 0.003-0.005 0.005-0.006s0.005-0.003 0.008-0.003c0.112-0.004 0.226-0.010 0.341-0.017 0.058 0 0.114-0.010 0.175-0.015l0.178-0.012c0.119-0.009 0.241-0.019 0.364-0.035 0.061-0.008 0.122-0.018 0.182-0.031 0.030-0.006 0.059-0.015 0.087-0.026 0.026-0.010 0.057-0.026 0.060-0.044 0.005-0.025 0.002-0.050-0.009-0.074-0.013-0.022-0.036-0.040-0.063-0.049-0.059-0.019-0.122-0.029-0.185-0.029-0.131-0.002-0.263 0.002-0.394 0.013-0.271 0.018-0.543 0.011-0.813-0.022-0.002-0-0.004-0.001-0.006-0.002s-0.003-0.002-0.005-0.003c-0.001-0.002-0.002-0.003-0.003-0.005s-0-0.004-0-0.005 0.002-0.006 0.004-0.008c0.002-0.002 0.005-0.003 0.009-0.004l0.992-0.133c0.106-0.015 0.212-0.025 0.314-0.044 0.050-0.010 0.098-0.023 0.146-0.040 0.023-0.008 0.045-0.019 0.065-0.032 0.009-0.005 0.016-0.012 0.021-0.019s0.008-0.017 0.008-0.026c-0.004-0.038-0.052-0.060-0.1-0.071s-0.096-0.020-0.146-0.024c-0.1-0.009-0.201-0.014-0.301-0.014-0.199 0-0.395 0.007-0.582 0.019l-0.455 0.070c-0.002 0-0.004 0-0.005-0s-0.003-0.001-0.005-0.002-0.003-0.002-0.004-0.004-0.002-0.003-0.002-0.005-0.001-0.007 0-0.010c0.059-0.071 0.116-0.142 0.169-0.205 0.003-0.003 0.006-0.005 0.010-0.005 0.218-0.021 0.431-0.042 0.631-0.074 0.025-0.004 0.049-0.009 0.073-0.015 0.022-0.007 0.043-0.017 0.063-0.029 0.039-0.024 0.069-0.060 0.053-0.097-0.008-0.018-0.020-0.035-0.036-0.048s-0.036-0.023-0.057-0.029c-0.043-0.013-0.088-0.018-0.133-0.017-0.188-0.005-0.369-0.006-0.538-0.005-0.085 0-0.168 0-0.247 0.009-0.018 0.001-0.036 0.005-0.052 0.011l-0.046 0.032-0.089 0.064-1.071 0.776c-0.022 0.017-0.033 0.025-0.033 0.025z"></path>
<path fill="#ff9a6c" style="fill: var(--color11, #ff9a6c)" d="M5.020 16.608c0.008 0.006-0.364 0.418-0.826 0.92s-0.847 0.904-0.858 0.899 0.364-0.417 0.826-0.92c0.463-0.502 0.848-0.905 0.858-0.899z"></path>
<path fill="#8baa36" style="fill: var(--color7, #8baa36)" d="M23.047 5.136c-0.056 0-0.106-0.009-0.151-0.027s-0.080-0.045-0.107-0.081c-0.026-0.036-0.040-0.079-0.042-0.129h0.199c0.003 0.028 0.013 0.050 0.030 0.066s0.039 0.022 0.066 0.022c0.028 0 0.050-0.006 0.066-0.019s0.024-0.031 0.024-0.054c0-0.019-0.007-0.035-0.020-0.047s-0.028-0.023-0.047-0.031c-0.018-0.008-0.044-0.017-0.079-0.027-0.050-0.015-0.090-0.031-0.121-0.046s-0.058-0.038-0.081-0.068c-0.023-0.030-0.034-0.069-0.034-0.117 0-0.071 0.026-0.127 0.078-0.167s0.119-0.061 0.202-0.061c0.085 0 0.153 0.020 0.205 0.061s0.080 0.096 0.083 0.168h-0.202c-0.001-0.025-0.011-0.044-0.027-0.058s-0.038-0.022-0.065-0.022c-0.023 0-0.041 0.006-0.055 0.019s-0.021 0.029-0.021 0.051c0 0.025 0.012 0.044 0.035 0.058s0.060 0.029 0.109 0.045c0.050 0.017 0.090 0.033 0.12 0.048s0.058 0.038 0.081 0.067 0.034 0.067 0.034 0.113c0 0.044-0.011 0.083-0.034 0.119s-0.054 0.064-0.096 0.085-0.092 0.032-0.15 0.032zM23.736 5.137c-0.060 0-0.114-0.013-0.162-0.038s-0.085-0.062-0.113-0.109c-0.027-0.047-0.040-0.103-0.040-0.166s0.014-0.118 0.042-0.165c0.028-0.048 0.066-0.085 0.114-0.111s0.102-0.038 0.162-0.038c0.060 0 0.114 0.013 0.162 0.038s0.086 0.062 0.114 0.111c0.028 0.047 0.042 0.102 0.042 0.165s-0.014 0.118-0.043 0.166c-0.028 0.047-0.066 0.084-0.115 0.109s-0.102 0.038-0.162 0.038zM23.736 4.975c0.036 0 0.066-0.013 0.091-0.039s0.038-0.064 0.038-0.113-0.012-0.086-0.037-0.113c-0.024-0.026-0.054-0.039-0.090-0.039s-0.067 0.013-0.091 0.039c-0.024 0.026-0.036 0.063-0.036 0.113s0.012 0.086 0.035 0.113c0.024 0.026 0.054 0.039 0.090 0.039zM25.078 4.36l-0.266 0.514v0.254h-0.187v-0.254l-0.266-0.514h0.212l0.149 0.322 0.148-0.322h0.21zM25.773 4.518v0.61h-0.187v-0.083c-0.019 0.027-0.045 0.049-0.078 0.066s-0.068 0.024-0.107 0.024c-0.047 0-0.088-0.010-0.124-0.031s-0.063-0.051-0.083-0.091-0.030-0.086-0.030-0.139v-0.357h0.186v0.332c0 0.041 0.011 0.073 0.032 0.095s0.050 0.034 0.085 0.034c0.037 0 0.065-0.011 0.086-0.034s0.032-0.054 0.032-0.095v-0.332h0.187zM26.702 4.511c0.076 0 0.136 0.023 0.18 0.069s0.068 0.11 0.068 0.191v0.357h-0.186v-0.332c0-0.039-0.011-0.070-0.032-0.091s-0.049-0.033-0.085-0.033c-0.037 0-0.065 0.011-0.086 0.033s-0.031 0.051-0.031 0.091v0.332h-0.186v-0.332c0-0.039-0.011-0.070-0.032-0.091s-0.049-0.033-0.085-0.033c-0.037 0-0.065 0.011-0.086 0.033s-0.031 0.051-0.031 0.091v0.332h-0.187v-0.61h0.187v0.077c0.019-0.026 0.044-0.046 0.074-0.060s0.065-0.023 0.104-0.023c0.046 0 0.087 0.010 0.123 0.030s0.065 0.048 0.085 0.084c0.021-0.034 0.050-0.061 0.086-0.082s0.076-0.032 0.119-0.032zM27.877 4.511c0.076 0 0.136 0.023 0.18 0.069s0.068 0.11 0.068 0.191v0.357h-0.186v-0.332c0-0.039-0.011-0.070-0.032-0.091s-0.049-0.033-0.085-0.033-0.065 0.011-0.086 0.033c-0.020 0.021-0.031 0.051-0.031 0.091v0.332h-0.186v-0.332c0-0.039-0.011-0.070-0.032-0.091s-0.049-0.033-0.085-0.033-0.065 0.011-0.086 0.033c-0.020 0.021-0.031 0.051-0.031 0.091v0.332h-0.187v-0.61h0.187v0.077c0.019-0.026 0.044-0.046 0.074-0.060s0.065-0.023 0.104-0.023c0.046 0 0.087 0.010 0.123 0.030s0.065 0.048 0.085 0.084c0.021-0.034 0.050-0.061 0.086-0.082s0.076-0.032 0.119-0.032zM28.896 4.518l-0.383 0.9h-0.201l0.14-0.311-0.248-0.59h0.209l0.141 0.382 0.14-0.382h0.202z"></path>
</symbol>
</defs>
</svg>
