<svg aria-hidden="true" style="position: absolute; width: 0; height: 0; overflow: hidden;" version="1.1" xmlns="http://www.w3.org/2000/svg" xmlns:xlink="http://www.w3.org/1999/xlink">
<defs>
<symbol id="icon-123" viewBox="0 0 48 32">
<path fill="#8baa36" style="fill: var(--color1, #8baa36)" d="M39.741 15.673c0 0 2.365 0.233 3.563 1.689 0 0 1.267-1.687 3.541-1.652 0.556-0.666 0.91-1.475 1.021-2.333s-0.026-1.73-0.395-2.514c-0.369-0.784-0.954-1.447-1.687-1.914s-1.585-0.716-2.456-0.72c-0.871-0.004-1.725 0.238-2.463 0.697s-1.329 1.118-1.705 1.898c-0.376 0.78-0.521 1.651-0.418 2.51s0.449 1.672 0.999 2.343l0.001-0.004z"></path>
<path fill="#fafafa" style="fill: var(--color2, #fafafa)" opacity="0.5" d="M39.741 15.673c0 0 2.365 0.233 3.563 1.689 0 0 1.267-1.687 3.541-1.652 0.556-0.666 0.91-1.475 1.021-2.333s-0.026-1.73-0.395-2.514c-0.369-0.784-0.954-1.447-1.687-1.914s-1.585-0.716-2.456-0.72c-0.871-0.004-1.725 0.238-2.463 0.697s-1.329 1.118-1.705 1.898c-0.376 0.78-0.521 1.651-0.418 2.51s0.449 1.672 0.999 2.343l0.001-0.004z"></path>
<path fill="#b8b8b8" style="fill: var(--color3, #b8b8b8)" d="M43.225 8.551l-0.079 15.226h0.399l-0.32-15.226z"></path>
<path fill="#b8b8b8" style="fill: var(--color3, #b8b8b8)" d="M43.345 16.918c0 0 0.798-1.428 2.235-1.864 0 0-1.517 0.358-2.27 1.587l0.035 0.278z"></path>
<path fill="#b8b8b8" style="fill: var(--color3, #b8b8b8)" d="M43.345 12.873c0 0 0.798-1.428 2.235-1.865 0 0-1.517 0.357-2.27 1.587l0.035 0.278z"></path>
<path fill="#b8b8b8" style="fill: var(--color3, #b8b8b8)" d="M43.345 14.894c0 0 0.798-1.428 2.235-1.865 0 0-1.517 0.358-2.27 1.587l0.035 0.278z"></path>
<path fill="#b8b8b8" style="fill: var(--color3, #b8b8b8)" d="M43.226 13.903c0 0-0.771-1.427-2.158-1.864 0 0 1.464 0.357 2.196 1.587l-0.038 0.277z"></path>
<path fill="#b8b8b8" style="fill: var(--color3, #b8b8b8)" d="M43.226 15.887c0 0-0.771-1.428-2.158-1.864 0 0 1.464 0.357 2.196 1.586l-0.038 0.278z"></path>
<path fill="#8baa36" style="fill: var(--color1, #8baa36)" d="M1.032 15.673c0 0 2.365 0.233 3.563 1.689 0 0 1.267-1.687 3.541-1.652 0.556-0.666 0.91-1.475 1.020-2.333s-0.026-1.73-0.395-2.514c-0.369-0.784-0.954-1.448-1.687-1.914s-1.585-0.716-2.456-0.72c-0.871-0.004-1.725 0.238-2.463 0.697s-1.329 1.118-1.705 1.898c-0.376 0.78-0.521 1.651-0.418 2.51s0.449 1.672 0.999 2.343l0.001-0.004z"></path>
<path fill="#fafafa" style="fill: var(--color2, #fafafa)" opacity="0.5" d="M1.032 15.673c0 0 2.365 0.233 3.563 1.689 0 0 1.267-1.687 3.541-1.652 0.556-0.666 0.91-1.475 1.020-2.333s-0.026-1.73-0.395-2.514c-0.369-0.784-0.954-1.448-1.687-1.914s-1.585-0.716-2.456-0.72c-0.871-0.004-1.725 0.238-2.463 0.697s-1.329 1.118-1.705 1.898c-0.376 0.78-0.521 1.651-0.418 2.51s0.449 1.672 0.999 2.343l0.001-0.004z"></path>
<path fill="#b8b8b8" style="fill: var(--color3, #b8b8b8)" d="M4.517 8.551l-0.080 15.226h0.399l-0.319-15.226z"></path>
<path fill="#b8b8b8" style="fill: var(--color3, #b8b8b8)" d="M4.638 16.918c0 0 0.798-1.428 2.235-1.864 0 0-1.517 0.358-2.27 1.587l0.035 0.278z"></path>
<path fill="#b8b8b8" style="fill: var(--color3, #b8b8b8)" d="M4.638 12.873c0 0 0.798-1.428 2.235-1.865 0 0-1.517 0.357-2.27 1.587l0.035 0.278z"></path>
<path fill="#b8b8b8" style="fill: var(--color3, #b8b8b8)" d="M4.638 14.894c0 0 0.798-1.428 2.235-1.865 0 0-1.517 0.358-2.27 1.587l0.035 0.278z"></path>
<path fill="#b8b8b8" style="fill: var(--color3, #b8b8b8)" d="M4.518 13.903c0 0-0.771-1.427-2.158-1.864 0 0 1.464 0.357 2.196 1.587l-0.038 0.277z"></path>
<path fill="#b8b8b8" style="fill: var(--color3, #b8b8b8)" d="M4.518 15.887c0 0-0.771-1.428-2.158-1.864 0 0 1.464 0.357 2.196 1.586l-0.038 0.278z"></path>
<path fill="#8baa36" style="fill: var(--color1, #8baa36)" d="M30.131 17.149c0 0 1.936 0.19 2.916 1.382 0 0 1.037-1.381 2.899-1.353 0.455-0.545 0.744-1.207 0.835-1.91s-0.022-1.416-0.324-2.057c-0.302-0.641-0.781-1.184-1.381-1.566s-1.298-0.586-2.010-0.589c-0.713-0.003-1.412 0.195-2.016 0.571s-1.088 0.915-1.395 1.554c-0.308 0.639-0.426 1.351-0.342 2.054s0.368 1.368 0.817 1.917l0.001-0.003z"></path>
<path fill="#fafafa" style="fill: var(--color2, #fafafa)" opacity="0.5" d="M30.131 17.149c0 0 1.936 0.19 2.916 1.382 0 0 1.037-1.381 2.899-1.353 0.455-0.545 0.744-1.207 0.835-1.91s-0.022-1.416-0.324-2.057c-0.302-0.641-0.781-1.184-1.381-1.566s-1.298-0.586-2.010-0.589c-0.713-0.003-1.412 0.195-2.016 0.571s-1.088 0.915-1.395 1.554c-0.308 0.639-0.426 1.351-0.342 2.054s0.368 1.368 0.817 1.917l0.001-0.003z"></path>
<path fill="#b8b8b8" style="fill: var(--color3, #b8b8b8)" d="M32.983 11.314l-0.065 12.463h0.327l-0.262-12.463z"></path>
<path fill="#b8b8b8" style="fill: var(--color3, #b8b8b8)" d="M33.081 18.163c0 0 0.654-1.169 1.83-1.526 0 0-1.238 0.292-1.857 1.299l0.028 0.228z"></path>
<path fill="#b8b8b8" style="fill: var(--color3, #b8b8b8)" d="M33.081 14.853c0 0 0.654-1.169 1.83-1.525 0 0-1.238 0.292-1.857 1.298l0.028 0.228z"></path>
<path fill="#b8b8b8" style="fill: var(--color3, #b8b8b8)" d="M33.081 16.508c0 0 0.654-1.169 1.83-1.526 0 0-1.238 0.292-1.857 1.299l0.028 0.228z"></path>
<path fill="#b8b8b8" style="fill: var(--color3, #b8b8b8)" d="M32.984 15.696c0 0-0.63-1.169-1.765-1.525 0 0 1.198 0.292 1.798 1.298l-0.032 0.228z"></path>
<path fill="#b8b8b8" style="fill: var(--color3, #b8b8b8)" d="M32.984 17.319c0 0-0.63-1.169-1.765-1.525 0 0 1.198 0.292 1.798 1.299l-0.032 0.227z"></path>
<path fill="#8baa36" style="fill: var(--color1, #8baa36)" d="M11.401 17.149c0 0 1.936 0.19 2.916 1.382 0 0 1.032-1.381 2.899-1.353 0.455-0.545 0.744-1.208 0.834-1.91s-0.022-1.416-0.324-2.057c-0.302-0.641-0.781-1.184-1.381-1.566s-1.298-0.586-2.010-0.589c-0.713-0.003-1.412 0.195-2.016 0.571s-1.088 0.915-1.395 1.554c-0.308 0.639-0.426 1.351-0.342 2.054s0.368 1.368 0.818 1.917l0.001-0.003z"></path>
<path fill="#fafafa" style="fill: var(--color2, #fafafa)" opacity="0.5" d="M11.401 17.149c0 0 1.936 0.19 2.916 1.382 0 0 1.032-1.381 2.899-1.353 0.455-0.545 0.744-1.208 0.834-1.91s-0.022-1.416-0.324-2.057c-0.302-0.641-0.781-1.184-1.381-1.566s-1.298-0.586-2.010-0.589c-0.713-0.003-1.412 0.195-2.016 0.571s-1.088 0.915-1.395 1.554c-0.308 0.639-0.426 1.351-0.342 2.054s0.368 1.368 0.818 1.917l0.001-0.003z"></path>
<path fill="#b8b8b8" style="fill: var(--color3, #b8b8b8)" d="M14.254 11.314l-0.065 12.463h0.327l-0.262-12.463z"></path>
<path fill="#b8b8b8" style="fill: var(--color3, #b8b8b8)" d="M14.357 18.164c0 0 0.654-1.169 1.83-1.526 0 0-1.238 0.292-1.857 1.299l0.028 0.228z"></path>
<path fill="#b8b8b8" style="fill: var(--color3, #b8b8b8)" d="M14.357 14.853c0 0 0.654-1.169 1.83-1.525 0 0-1.238 0.292-1.857 1.298l0.028 0.228z"></path>
<path fill="#b8b8b8" style="fill: var(--color3, #b8b8b8)" d="M14.357 16.508c0 0 0.654-1.169 1.83-1.526 0 0-1.238 0.292-1.857 1.299l0.028 0.228z"></path>
<path fill="#b8b8b8" style="fill: var(--color3, #b8b8b8)" d="M14.254 15.696c0 0-0.629-1.169-1.764-1.52 0 0 1.198 0.292 1.797 1.298l-0.033 0.222z"></path>
<path fill="#b8b8b8" style="fill: var(--color3, #b8b8b8)" d="M14.254 17.319c0 0-0.63-1.169-1.765-1.525 0 0 1.198 0.292 1.797 1.299l-0.032 0.227z"></path>
<path fill="#000" style="fill: var(--color4, #000)" opacity="0.3" d="M13.902 28.778c0 0.308-1.902 0.552-4.249 0.552s-4.249-0.247-4.249-0.552c0-0.305 1.903-0.552 4.249-0.552s4.249 0.248 4.249 0.552z"></path>
<path fill="#000" style="fill: var(--color4, #000)" opacity="0.3" d="M22.798 28.778c0 0.308-1.903 0.552-4.249 0.552s-4.249-0.247-4.249-0.552c0-0.305 1.903-0.552 4.249-0.552s4.249 0.248 4.249 0.552z"></path>
<path fill="#000" style="fill: var(--color4, #000)" opacity="0.3" d="M34.582 28.778c0 0.308-1.902 0.552-4.248 0.552s-4.249-0.247-4.249-0.552c0-0.305 1.902-0.552 4.249-0.552s4.248 0.248 4.248 0.552z"></path>
<path fill="#000" style="fill: var(--color4, #000)" opacity="0.3" d="M44.426 28.778c0 0.308-1.903 0.552-4.249 0.552s-4.253-0.247-4.253-0.552 1.903-0.552 4.249-0.552c2.346 0 4.253 0.248 4.253 0.552z"></path>
<path fill="#fafafa" style="fill: var(--color2, #fafafa)" d="M30.793 12.615c0 0-0.174 0.718-0.174 0.838-0 0.075-0.008 0.149-0.025 0.222 0 0-0.372 0.444-0.323 0.567 0.060 0.096 0.146 0.172 0.249 0.222 0 0 0.198 0.718 0.397 0.765 0.205 0.038 0.411 0.063 0.619 0.074l0.074 0.591 0.993-0.148-0.248-0.888 0.103-0.765c0 0 0.173-0.32 0-0.838s-0.546-0.542-0.794-0.542c-0.292-0.018-0.583-0.052-0.871-0.099z"></path>
<path fill="#22252a" style="fill: var(--color5, #22252a)" d="M31.239 12.246c0 0-0.869-0.026-0.844 0.197s0.918 0.513 0.918 0.513c0 0-0.298 0.197-0.15 0.395s0.496 0.37 0.496 0.37-0.103 0.419 0.051 0.444c0.154 0.025 0.248-0.198 0.272-0.272s0.298-0.049 0.372 0.148c0.042 0.102 0.067 0.211 0.074 0.321 0 0 0.298-0.888 0.348-1.282s-1.067-0.832-1.538-0.832z"></path>
<path fill="#fafafa" style="fill: var(--color2, #fafafa)" d="M31.79 14.176c0 0 0.3-0.656 0.48-0.333s0.103 0.659-0.073 0.695c-0.177 0.036-0.324 0.071-0.324 0.071z"></path>
<path fill="#22252a" style="fill: var(--color5, #22252a)" d="M30.569 21.022c-0.049 0.056-0.844 1.751-0.943 2.318s-0.744 3.945-0.77 4.093c-0.026 0.148-1.389 0.444-1.489 0.468s0.103 0.296 0.397 0.37c0.294 0.074 1.142 0.419 1.341 0.221s0.472-1.307 0.546-1.43c0.074-0.123 1.471-3.393 1.471-3.393s0.716-1.569 0.865-1.718c0.149-0.149-0.176-0.806-0.301-1.003s-0.77-0.321-1.117 0.074z"></path>
<path fill="#22252a" style="fill: var(--color5, #22252a)" d="M30.421 21.044c0 0 0.348 1.652 0.521 2.244 0.162 0.497 0.406 0.963 0.722 1.381 0.199 0.272 1.167 2.665 1.167 2.665l0.149 0.37c0 0-0.050 0.148-0.322 0.344s-1.043 0.518-0.844 0.593 0.993 0.074 1.365 0.049c0.321-0.023 0.621-0.163 0.843-0.395 0.15-0.173-0.248-0.666-0.248-0.765s-0.869-3.106-0.918-3.255c-0.050-0.149-0.298-1.207-0.298-1.207v-1.204c0 0 0.125-0.221 0.125-0.718s-0.373-0.592-0.373-0.592l-2.036 0.198 0.147 0.292z"></path>
<path fill="#8baa36" style="fill: var(--color1, #8baa36)" d="M30.248 20.899c0 0 0.051 0.419 0.199 0.444s1.687 0.444 2.358-0.049c0 0 0.124-0.37 0.050-0.468s-0.249-0.049-1.141-0.049c-0.893 0-1.465 0-1.465 0.123z"></path>
<path fill="#8baa36" style="fill: var(--color1, #8baa36)" d="M32.529 15.376c0 0-0.918 0.123-1.316 0.512s-0.744 1.11-0.917 1.775c-0.173 0.665-0.298 3.107-0.051 3.23s2.333 0.247 2.683 0.102c0.35-0.145-0.025-1.307-0.025-1.751s0.397-1.948 0.323-2.785c-0.074-0.837-0.698-1.084-0.698-1.084z"></path>
<path fill="#22252a" style="fill: var(--color5, #22252a)" d="M29.216 17.939c-0.011-1.015-0.428-1.881-0.982-2.255v-0.205l-1.527 0.015c-0.86 0.009-1.548 1.128-1.53 2.491s0.722 2.467 1.583 2.46l1.527-0.015v-0.205c0.537-0.397 0.935-1.271 0.93-2.286z"></path>
<path fill="#fafafa" style="fill: var(--color2, #fafafa)" d="M29.901 17.932c-0.011-1.066-0.425-1.976-1.007-2.372v-0.218l-0.654 0.007c-0.904 0.009-1.623 1.181-1.608 2.617s0.759 2.592 1.663 2.583l0.654-0.007v-0.217c0.569-0.408 0.963-1.33 0.951-2.392z"></path>
<path fill="#737373" style="fill: var(--color6, #737373)" d="M30.557 17.925c0.015 1.435-0.705 2.608-1.608 2.617s-1.651-1.147-1.663-2.582 0.705-2.608 1.608-2.618c0.903-0.010 1.646 1.147 1.663 2.583z"></path>
<path fill="#22252a" style="fill: var(--color5, #22252a)" d="M30.182 17.881c0.007 0.68-0.334 1.235-0.763 1.24s-0.781-0.544-0.788-1.23c-0.007-0.686 0.334-1.23 0.762-1.24s0.781 0.549 0.788 1.23z"></path>
<path fill="#22252a" style="fill: var(--color5, #22252a)" d="M42.342 22.991c0.085-0.632 0.121-1.269 0.108-1.907-0.335 0.154-2.292 0.21-2.471 0.214s-2.136-0.060-2.471-0.214c-0.015 0.637 0.020 1.275 0.103 1.907 0.135 0.831 1.324 4.16 1.351 4.321 0.035 0.155 0.080 0.308 0.135 0.457 0 0-0.676 0.483-0.973 0.67s-0.080 0.269 0.217 0.269c0.297 0 0.918-0.081 1.107-0.081 0.167 0 0.458-0.145 0.526-0.179 0.068 0.035 0.359 0.179 0.525 0.179 0.19 0 0.811 0.081 1.108 0.081s0.516-0.081 0.217-0.269c-0.299-0.188-0.973-0.67-0.973-0.67 0.055-0.149 0.1-0.302 0.135-0.457 0.032-0.164 1.221-3.492 1.356-4.321z"></path>
<path fill="#8baa36" style="fill: var(--color1, #8baa36)" d="M39.57 15.866c0 0-1.045 0.339-1.585 0.68s-1.081 2.183-1.081 2.255c-0.031 0.128-0.073 0.254-0.126 0.375 0 0-0.541-0.125-0.648 0.322s0.54 1.020 0.882 1.038c0.343 0.018 0.45-0.089 0.45-0.089s-0.216 0.43-0.126 0.608c0.090 0.178 0.847 0.842 2.342 0.82s2.58-0.269 2.738-0.483c0.158-0.214 0.181-0.662 0.181-0.662s0.558-0.144 0.756-0.501c0.198-0.358 0.162-0.734 0.054-1.109s-0.667-1.465-1.044-2.074c-0.378-0.609-1.171-0.948-1.548-1.056s-0.993-0.124-1.244-0.124z"></path>
<path fill="#fafafa" style="fill: var(--color2, #fafafa)" d="M39.887 17.373c0.15-0.049 0.619-0.463 0.8-0.877 0.071-0.159 0.122-0.326 0.15-0.497l-0.024-0.007c-0.378-0.108-0.991-0.125-1.238-0.125 0 0-0.219 0.071-0.508 0.18 0.002 0.222 0.044 0.441 0.124 0.648 0.163 0.414 0.551 0.729 0.696 0.679z"></path>
<path fill="#8baa36" style="fill: var(--color1, #8baa36)" d="M39.452 28.629c0.167 0 0.458-0.145 0.526-0.179 0.068 0.035 0.359 0.179 0.525 0.179 0.19 0 0.811 0.081 1.108 0.081s0.516-0.081 0.217-0.269c-0.259-0.163-0.802-0.548-0.94-0.647-0.319 0.289-0.949 0.217-0.949 0.217-0.128-0.019-0.254-0.046-0.379-0.080-0.189-0.054-0.459-0.161-0.459-0.161s-0.676 0.483-0.973 0.67c-0.297 0.188-0.080 0.269 0.217 0.269s0.918-0.081 1.107-0.081z"></path>
<path fill="#22252a" style="fill: var(--color5, #22252a)" d="M38.537 13.181c0 0-0.561 0.334-0.478 0.627s0.337 0.35 0.282 0.512c-0.056 0.163-0.251 0.265-0.029 0.368 0.126 0.056 0.258 0.098 0.394 0.126 0 0 0.206 0.711 0.561 0.836s0.97 0.042 1.405-0.013c0.147-0.014 0.286-0.073 0.399-0.168s0.194-0.222 0.232-0.363c0.042-0.153-0.183 0.029-0.295-0.139s0.057-0.6 0.183-0.977-0.253-1.089-0.744-1.325c-0.491-0.237-1.429-0.113-1.911 0.516z"></path>
<path fill="#fafafa" style="fill: var(--color2, #fafafa)" d="M39.48 15.611c-0.071 0.234-0.12 0.474-0.144 0.718-0.019 0.308 0.234 0.645 0.505 0.626s0.504-0.555 0.54-0.82c0.036-0.265-0.090-0.984-0.090-0.984s-0.413 0.018-0.577 0.161c-0.096 0.084-0.176 0.186-0.233 0.299z"></path>
<path fill="#fafafa" style="fill: var(--color2, #fafafa)" d="M39.114 13.571c0 0 0.013 0.418 0.435 0.82 0.254 0.244 0.555 0.434 0.884 0.559-0.007 0.092-0.031 0.181-0.070 0.264-0.018 0.035-0.047 0.063-0.082 0.082s-0.075 0.026-0.114 0.021h-0.141c0 0-0.206 0.481-0.456 0.55s-0.864 0.022-0.948-0.592c-0.085-0.614-0.098-1.116-0.028-1.242s0.52-0.461 0.52-0.461z"></path>
<path fill="#fafafa" style="fill: var(--color2, #fafafa)" d="M43.529 18.973c0.064-0.128 0.103-0.267 0.115-0.41 0-0.187-0.349-0.454-0.413-0.521s-0.128-0.059-0.141 0.034c-0 0.052 0.010 0.104 0.031 0.152s0.051 0.092 0.090 0.128c0.052 0.041 0.090 0.097 0.108 0.161 0.006 0.046-0.116 0.273-0.055 0.419s0.232 0.191 0.265 0.037z"></path>
<path fill="#8baa36" style="fill: var(--color1, #8baa36)" d="M32.4 16.135c0 0-0.302-0.49-0.748-0.362-0.472 0.135-0.715 0.805-0.826 1.222s-0.185 0.868-0.387 1.257c0 0-0.894-0.015-1.392-0.159-0.38-0.118-0.754-0.255-1.121-0.41 0 0-0.176-0.245-0.301-0.293s-0.449-0.142-0.473-0.069c-0.024 0.074 0.376 0.317 0.376 0.317s-0.743 0.102-0.817 0.181c-0.074 0.079 0.525 0.315 0.525 0.315s0.224 0.072 0.769-0.057c0 0 1.999 1.261 2.397 1.405s0.619 0.191 0.89-0.33c0.271-0.521 1.172-1.812 1.316-2.332z"></path>
<path fill="#fafafa" style="fill: var(--color2, #fafafa)" d="M28.445 17.892c-0.292-0.109-0.516-0.205-0.516-0.205s-0.176-0.245-0.301-0.293c-0.125-0.048-0.449-0.142-0.473-0.069s0.376 0.317 0.376 0.317-0.743 0.102-0.817 0.181c-0.074 0.079 0.525 0.315 0.525 0.315s0.224 0.072 0.769-0.057l0.28 0.175 0.158-0.364z"></path>
<path fill="#fafafa" style="fill: var(--color2, #fafafa)" d="M36.149 19.162c-0.064-0.128-0.103-0.267-0.115-0.41 0-0.187 0.35-0.453 0.413-0.52s0.127-0.059 0.14 0.034c0 0.052-0.010 0.104-0.031 0.152s-0.051 0.092-0.090 0.128c-0.052 0.041-0.090 0.097-0.108 0.161-0.006 0.045 0.116 0.273 0.055 0.419s-0.231 0.189-0.264 0.036z"></path>
<path fill="#fafafa" style="fill: var(--color2, #fafafa)" d="M36.389 18.599c0 0-0.288 0.528-0.121 0.718s0.329-0.426 0.36-0.596c0.031-0.17-0.133-0.341-0.239-0.121z"></path>
<path fill="#fafafa" style="fill: var(--color2, #fafafa)" d="M36.626 18.789c0 0-0.288 0.528-0.121 0.718s0.329-0.426 0.36-0.597c0.031-0.17-0.133-0.347-0.239-0.121z"></path>
<path fill="#fafafa" style="fill: var(--color2, #fafafa)" d="M36.888 18.833c0 0-0.288 0.528-0.121 0.718s0.329-0.426 0.36-0.597c0.031-0.17-0.133-0.342-0.239-0.121z"></path>
<path fill="#fafafa" style="fill: var(--color2, #fafafa)" d="M37.222 18.837c0 0-0.268 0.41-0.122 0.565s0.304-0.332 0.335-0.473c0.031-0.14-0.114-0.277-0.214-0.092z"></path>
<path fill="#fafafa" style="fill: var(--color2, #fafafa)" d="M43.338 18.62c0 0 0.288 0.528 0.121 0.718s-0.329-0.427-0.36-0.598c-0.031-0.17 0.133-0.341 0.239-0.12z"></path>
<path fill="#fafafa" style="fill: var(--color2, #fafafa)" d="M43.101 18.804c0 0 0.288 0.528 0.121 0.718s-0.329-0.427-0.36-0.598 0.133-0.34 0.239-0.12z"></path>
<path fill="#fafafa" style="fill: var(--color2, #fafafa)" d="M42.837 18.853c0 0 0.288 0.528 0.121 0.718s-0.329-0.426-0.359-0.598c-0.030-0.171 0.135-0.341 0.238-0.12z"></path>
<path fill="#fafafa" style="fill: var(--color2, #fafafa)" d="M42.504 18.857c0 0 0.268 0.415 0.122 0.565s-0.304-0.332-0.334-0.473c-0.030-0.14 0.114-0.277 0.213-0.092z"></path>
<path fill="#fafafa" style="fill: var(--color2, #fafafa)" d="M7.003 24.698v0.582c-0.203 0.221-0.35 0.488-0.426 0.777-0.125 0.476-0.516 2.523-0.413 2.576s1.074 0.274 1.384 0.228c0.355-0.053 0.657-0.035 0.479-0.23s-1.117-0.739-1.117-0.739 1.032-1.482 1.261-2.030c0.229-0.547 0.266-1.394 0.266-1.394l-1.385-0.052-0.050 0.282z"></path>
<path fill="#22252a" style="fill: var(--color5, #22252a)" d="M7.547 28.861c0.355-0.053 0.657-0.035 0.479-0.23s-1.117-0.739-1.117-0.739l-0.035 0.211-0.676-0.082c-0.050 0.342-0.071 0.593-0.035 0.615 0.11 0.049 1.074 0.271 1.384 0.224z"></path>
<path fill="#fafafa" style="fill: var(--color2, #fafafa)" d="M10.395 24.999l0.16 0.283c-0.066 0.127-0.105 0.266-0.115 0.409s0.011 0.286 0.061 0.42c0.16 0.494 0.533 2.311 0.533 2.417s0.23 0.176 0.413 0.176c0.183 0 0.688 0.035 0.759 0.035s0.586 0.088 0.764-0.017c0.178-0.106-0.226-0.318-0.492-0.441s-0.852-0.441-0.852-0.441 0.141-1.447 0.141-2.083c0-0.636 0.142-0.847-0.053-1.235s-1.421 0.177-1.421 0.177l0.101 0.299z"></path>
<path fill="#22252a" style="fill: var(--color5, #22252a)" d="M12.473 28.282c-0.266-0.124-0.852-0.441-0.852-0.441l-0.071 0.265-0.571 0.102c0.034 0.176 0.056 0.297 0.056 0.322 0 0.103 0.23 0.176 0.413 0.176s0.688 0.035 0.759 0.035c0.071 0 0.586 0.088 0.764-0.017s-0.231-0.319-0.497-0.442z"></path>
<path fill="#fafafa" style="fill: var(--color2, #fafafa)" d="M9.438 13.254c-0.139-0.236-0.298-0.461-0.476-0.67-0.245-0.274-1.011-0.258-1.348 0.102s-0.23 1.005-0.103 1.187c0.127 0.182 0.383 1.035 0.383 1.035l0.061 0.609 1.425 0.502-0.291-0.989c0 0 0.552-0.103 0.597-0.274s-0.092-0.746-0.092-0.746 0.184-0.122 0.168-0.229c-0.015-0.107-0.325-0.528-0.325-0.528z"></path>
<path fill="#22252a" style="fill: var(--color5, #22252a)" d="M7.798 13.91c0 0 0.244 0.205 0.377-0.030s0.234-0.464 0.234-0.663c0-0.199-0.5-0.364-0.167-0.497s0.574 0.163 0.722-0.134c0.149-0.297 0.013-0.329-0.787-0.329s-1.201 0.398-1.032 0.895c0.135 0.367 0.303 0.722 0.5 1.060l0.153-0.301z"></path>
<path fill="#fafafa" style="fill: var(--color2, #fafafa)" d="M8.063 14.107c0 0-0.184-0.38-0.367-0.307s-0.092 0.67 0.092 0.731c0.062 0.014 0.126 0.013 0.187-0.003s0.118-0.046 0.165-0.088c0 0 0.154 0.32 0.337 0.41z"></path>
<path fill="#8baa36" style="fill: var(--color1, #8baa36)" d="M6.857 20.941l-0.115 1.458-0.343 2.158c0 0 0.801 0.624 1.548 0.624s0.952-0.094 0.952-0.094l0.419-2.214 0.419 2.328c0 0 0.826-0.132 1.372-0.265 0.38-0.105 0.741-0.271 1.067-0.492l-1.105-2.858-0.239-1.474c0 0-1.238 0.114-1.982 0.152s-1.734-0.152-1.734-0.152l-0.26 0.83z"></path>
<path fill="#22252a" style="fill: var(--color5, #22252a)" d="M7.643 15.117c0 0 1.754 0.608 2.296 1.198 0.299 0.328 0.635 2.573 0.755 3.121s0.331 1.64 0.331 1.64-1.070 0.48-1.898 0.497c-0.828 0.017-2.416-0.36-2.416-0.36s0.189-2.432 0.189-3.563c0-1.131 0.018-1.869 0.206-2.228 0.001 0.003 0.312-0.34 0.536-0.306z"></path>
<path fill="#22252a" style="fill: var(--color5, #22252a)" d="M16.685 14.381c0 0-0.151 0.111-0.676 0.492s-0.111 0.957-0.111 0.957-0.376 0.059-0.877 0.582c-0.501 0.524 0.224 1.423 0.902 1.563s1.47-0.693 1.708-1.466-0.076-1.938-0.234-2.179c-0.158-0.241-0.711 0.050-0.711 0.050z"></path>
<path fill="#22252a" style="fill: var(--color5, #22252a)" d="M18.674 14.279c0 0 0.261-0.401 0.025-0.982s-0.942-0.847-1.629-0.425c-0.229 0.135-0.407 0.342-0.505 0.588s-0.113 0.517-0.041 0.772c0.067 0.268 0.406 0.682 0.477 0.688s0.689 0.23 1.111 0.034c0.422-0.196 0.562-0.675 0.562-0.675z"></path>
<path fill="#737373" style="fill: var(--color6, #737373)" d="M15.638 27.809c0 0 0.49 0.757 1.341 0.887s0.086-0.629-0.058-0.744c-0.143-0.115-1.168-0.363-1.284-0.142z"></path>
<path fill="#737373" style="fill: var(--color6, #737373)" d="M20.173 28.004c0 0 0.936 0.229 0.864 0.429s-0.835 0.186-1.281 0.071-0.865-0.286-0.807-0.471c0.058-0.186 1.224-0.029 1.224-0.029z"></path>
<path fill="#8baa36" style="fill: var(--color1, #8baa36)" d="M17.512 15.785c0 0-1.253 0.182-1.482 0.622s0.094 2.835 0.094 2.835-0.535 1.172-0.542 1.926c-0.007 0.754 0.331 2.082 0.304 2.413s-0.369 4.1-0.369 4.203c0 0.103 0.722 0.332 1.763 0.455s3.033-0.245 3.033-0.245c0 0-0.039-2.224 0.065-3.551s-0.044-2.519-0.31-3.014c-0.265-0.495-1.5-2.278-1.5-2.278s0.598-1.078 0.636-1.55c0.037-0.471-0.156-0.718-0.608-1.26-0.134-0.16-0.299-0.292-0.486-0.387s-0.39-0.154-0.599-0.17z"></path>
<path fill="#737373" style="fill: var(--color6, #737373)" d="M18.57 19.154c0 0 0.599-1.078 0.636-1.55s-0.156-0.718-0.608-1.26c-0.022-0.027-0.044-0.050-0.067-0.075l-0.017 0.015c-0.464 0.753-2 2.041-2.457 2.416 0.035 0.321 0.065 0.542 0.065 0.542s-0.535 1.172-0.542 1.926c0.009 0.344 0.043 0.686 0.103 1.025 1.085-0.615 2.535-1.766 3.321-2.408-0.246-0.361-0.434-0.632-0.434-0.632z"></path>
<path fill="#fafafa" style="fill: var(--color2, #fafafa)" d="M17.281 14.906c0.035 0.281 0.054 0.564 0.057 0.848-0.017 0.21 0.052 0.69 0.413 0.841s0.588-0.059 0.587-0.271c-0.013-0.174-0.048-0.347-0.103-0.513l0.010-0.579c0 0-0.623-0.387-0.964-0.326z"></path>
<path fill="#fafafa" style="fill: var(--color2, #fafafa)" d="M16.957 14.53c0 0-0.265-0.232-0.273 0.102s0.301 0.445 0.369 0.467c0.058 0.008 0.116-0.006 0.163-0.040 0 0 0.481 0.41 0.867 0.437s0.543-0.151 0.634-0.847c0.091-0.696-0.633-1.402-0.633-1.402s-0.619 1.134-1.127 1.282z"></path>
<path fill="#fafafa" style="fill: var(--color2, #fafafa)" d="M11.055 21.062c-0.003-0.119 0.016-0.237 0.058-0.349 0.064-0.139 0.413-0.219 0.49-0.246s0.117 0 0.094 0.073c-0.018 0.039-0.044 0.074-0.076 0.103s-0.070 0.051-0.111 0.065c-0.053 0.013-0.101 0.042-0.137 0.083-0.020 0.033-0.007 0.243-0.103 0.332s-0.247 0.065-0.215-0.062z"></path>
<path fill="#22252a" style="fill: var(--color5, #22252a)" d="M7.724 15.166c0 0-0.286-0.114-0.668 0.113s-1.41 2.707-1.333 2.973c0.076 0.265 1.162 0.758 1.772 0.928s1.715 0.379 1.715 0.379c0 0 0.343 0.53 0.457 0.548 0.167-0.002 0.333-0.021 0.495-0.056 0 0 0.206 0.17 0.286-0.019s-0.076-0.435-0.248-0.624c-0.171-0.19-0.896-0.284-0.896-0.284l-1.964-1.345 0.826-1.514z"></path>
<path fill="#fafafa" style="fill: var(--color2, #fafafa)" d="M9.667 20.106c0.167-0.002 0.332-0.021 0.495-0.056 0 0 0.206 0.17 0.286-0.019s-0.076-0.435-0.248-0.624c-0.171-0.19-0.896-0.284-0.896-0.284l-1.964-1.344 0.293-0.542c-0.734-0.454-1.221-0.42-1.484-0.329-0.263 0.627-0.463 1.222-0.428 1.344 0.076 0.266 1.162 0.758 1.772 0.928s1.715 0.379 1.715 0.379c0 0 0.344 0.53 0.458 0.548z"></path>
<path fill="#22252a" style="fill: var(--color5, #22252a)" d="M21.94 18.022c-0.084-0.895-0.516-1.63-1.032-1.922l-0.016-0.182-1.348 0.124c-0.758 0.070-1.282 1.104-1.169 2.309s0.818 2.125 1.577 2.050l1.348-0.124-0.018-0.183c0.454-0.377 0.742-1.178 0.658-2.073z"></path>
<path fill="#fafafa" style="fill: var(--color2, #fafafa)" d="M22.55 17.969c-0.088-0.94-0.516-1.714-1.062-2.021l-0.019-0.192-0.577 0.053c-0.797 0.074-1.347 1.159-1.229 2.426s0.861 2.234 1.657 2.16l0.577-0.053-0.018-0.192c0.477-0.404 0.757-1.244 0.67-2.181z"></path>
<path fill="#fafafa" style="fill: var(--color2, #fafafa)" d="M23.128 17.912c0.119 1.267-0.431 2.353-1.229 2.426s-1.54-0.894-1.66-2.16c-0.121-1.266 0.431-2.358 1.228-2.426s1.542 0.894 1.661 2.16z"></path>
<path fill="#737373" style="fill: var(--color6, #737373)" d="M23.747 17.172l-2.238 0.205c-0.031 0.003-0.063-0-0.093-0.010s-0.058-0.024-0.082-0.044c-0.024-0.020-0.044-0.045-0.059-0.072s-0.024-0.058-0.026-0.089c-0.003-0.031 0-0.063 0.009-0.093s0.024-0.058 0.045-0.082c0.020-0.024 0.045-0.044 0.073-0.059s0.058-0.023 0.090-0.026l2.238-0.205c0.031-0.003 0.063 0 0.093 0.009s0.058 0.024 0.082 0.044 0.044 0.045 0.059 0.072c0.015 0.028 0.024 0.058 0.026 0.089s-0 0.063-0.009 0.093c-0.009 0.030-0.024 0.058-0.045 0.082s-0.045 0.044-0.073 0.059-0.058 0.024-0.090 0.026z"></path>
<path fill="#737373" style="fill: var(--color6, #737373)" d="M23.913 18.934l-2.238 0.205c-0.031 0.003-0.063-0-0.093-0.009s-0.058-0.024-0.082-0.044-0.044-0.045-0.059-0.072c-0.015-0.028-0.024-0.058-0.026-0.089s0-0.063 0.009-0.093c0.009-0.030 0.024-0.058 0.045-0.082s0.045-0.044 0.073-0.059c0.028-0.015 0.058-0.024 0.090-0.026l2.238-0.205c0.063-0.006 0.126 0.014 0.175 0.054s0.080 0.098 0.086 0.161c0.003 0.031-0 0.063-0.009 0.093s-0.024 0.058-0.045 0.082c-0.020 0.024-0.045 0.044-0.073 0.059s-0.058 0.024-0.090 0.026z"></path>
<path fill="#8baa36" style="fill: var(--color1, #8baa36)" d="M16.738 15.953c0 0-0.539 0.102-0.794 0.41s-0.778 2.68-0.657 2.953c0.121 0.273 2.055 0.615 2.653 0.664 0.48 0.019 0.962-0.002 1.438-0.064 0 0 0.516-0.013 0.657-0.037s0.401-0.162 0.406-0.214-0.022-0.177-0.215-0.193c-0.193-0.015-0.607-0.153-0.659-0.157 0.124-0.032 0.25-0.058 0.377-0.076 0 0 0.027-0.102-0.186-0.102s-0.405-0.014-0.486 0.102c-0.058 0.091-0.107 0.187-0.147 0.287 0 0-1.192 0.083-1.839-0.231s-0.851-0.418-0.851-0.418l0.464-1.845z"></path>
<path fill="#fafafa" style="fill: var(--color2, #fafafa)" d="M20.033 19.883c0.143-0.024 0.401-0.162 0.406-0.214s-0.022-0.177-0.215-0.193c-0.193-0.015-0.607-0.153-0.659-0.157 0.124-0.032 0.25-0.058 0.377-0.076 0 0 0.027-0.103-0.186-0.103s-0.406-0.014-0.486 0.103c-0.058 0.091-0.107 0.187-0.147 0.287 0 0-1.192 0.083-1.839-0.231s-0.851-0.418-0.851-0.418l0.283-1.128c-0.368-0.151-0.756-0.246-1.153-0.284-0.193 0.773-0.351 1.683-0.279 1.845 0.12 0.273 2.055 0.615 2.653 0.664 0.48 0.019 0.962-0.002 1.438-0.064 0 0 0.517-0.009 0.657-0.033z"></path>
<path fill="#fafafa" style="fill: var(--color2, #fafafa)" d="M11.316 20.863c0 0-0.398 0.296-0.337 0.492s0.393-0.205 0.476-0.323c0.083-0.118 0.018-0.296-0.138-0.169z"></path>
<path fill="#fafafa" style="fill: var(--color2, #fafafa)" d="M11.396 21.129c0 0-0.397 0.296-0.337 0.492s0.394-0.205 0.476-0.323c0.082-0.118 0.018-0.298-0.138-0.169z"></path>
<path fill="#fafafa" style="fill: var(--color2, #fafafa)" d="M11.584 21.301c0 0-0.397 0.296-0.336 0.492s0.393-0.205 0.476-0.323c0.083-0.118 0.018-0.298-0.139-0.169z"></path>
<path fill="#fafafa" style="fill: var(--color2, #fafafa)" d="M11.739 21.441c0 0-0.344 0.219-0.286 0.381s0.342-0.145 0.413-0.239c0.071-0.094 0.013-0.246-0.127-0.142z"></path>
</symbol>
</defs>
</svg>
